<svg version="1.1" id="Layer_1" xmlns="http://www.w3.org/2000/svg" xmlns:xlink="http://www.w3.org/1999/xlink" x="0px" y="0px"
	 width="100%" viewBox="0 0 860 865" enable-background="new 0 0 860 865" xml:space="preserve">
<path fill="#F7F7F7" opacity="1.000000" stroke="none" 
	d="
M1.000000,307.000000 
	C1.000000,204.681396 1.000000,102.862793 1.000000,1.022097 
	C287.610474,1.022097 574.220947,1.022097 860.915710,1.022097 
	C860.915710,289.235382 860.915710,577.470825 860.915710,865.853149 
	C574.333374,865.853149 287.666718,865.853149 1.000000,865.853149 
	C1.000000,679.778809 1.000000,493.639404 1.000000,307.000000 
M314.000885,334.712189 
	C312.828064,335.433319 311.655243,336.154449 310.161194,336.836060 
	C310.161194,336.836060 309.998505,337.115845 309.301727,337.225250 
	C296.289215,343.986603 283.487335,351.033539 273.736725,363.394012 
	C271.587250,365.860992 269.239471,368.183777 267.322235,370.819672 
	C258.431366,383.043182 249.659866,395.353546 240.266479,408.023224 
	C233.689377,419.790314 226.705368,431.352905 220.658417,443.386383 
	C215.418976,453.812866 211.700882,464.950989 211.766617,476.834381 
	C211.783783,479.936310 213.516205,483.028717 214.460846,486.125519 
	C214.998505,486.021973 215.536179,485.918457 216.073837,485.814911 
	C216.435043,484.585114 216.837250,483.365662 217.151260,482.123901 
	C221.489685,464.967834 228.311707,448.830902 237.268478,433.602325 
	C240.597061,427.942993 244.270554,422.486511 248.337402,416.544067 
	C257.956299,404.804108 267.575195,393.064148 277.828186,381.077789 
	C290.192474,368.566284 303.934723,357.836151 319.910095,348.997864 
	C329.592041,345.598541 339.273987,342.199219 349.807037,338.879364 
	C356.174866,338.677948 362.542664,338.476532 368.942291,338.698364 
	C368.942291,338.698364 369.235443,339.005280 369.296783,339.730957 
	C369.115387,341.790070 369.393768,344.025482 368.682281,345.881378 
	C360.603516,366.954926 352.373383,387.970459 343.738190,409.577148 
	C335.100677,425.600983 326.463165,441.624817 317.223480,457.994873 
	C310.552612,467.009247 303.881744,476.023621 296.762421,485.362030 
	C296.694336,485.533417 296.626221,485.704803 296.126465,486.044342 
	C295.876099,486.252838 295.730957,486.518738 295.089813,487.107666 
	C287.058990,494.779419 279.028168,502.451172 270.344025,510.286560 
	C267.173309,512.799011 264.269073,515.791138 260.779663,517.729980 
	C251.882172,522.673889 242.723465,527.147522 233.272125,531.760986 
	C233.272125,531.760986 232.988739,532.043457 232.368561,531.986511 
	C231.643768,532.344116 230.918976,532.701721 229.421204,533.120483 
	C220.576462,535.553101 211.731720,537.985718 202.027100,540.504944 
	C194.345352,541.378113 186.663605,542.251343 178.059326,542.964722 
	C163.075287,543.398987 148.215027,542.549805 133.048706,538.161438 
	C132.032303,538.116516 131.015900,538.071655 129.408676,537.780762 
	C128.987518,537.331238 128.566345,536.881714 127.728279,536.013367 
	C126.819481,535.677002 125.910683,535.340637 124.683464,534.550476 
	C124.187622,534.334106 123.691780,534.117737 122.830040,533.326294 
	C114.156807,527.959351 108.930054,520.551270 109.214577,509.199127 
	C109.242867,500.054810 113.191986,492.927460 120.243652,487.272430 
	C124.736794,483.669189 129.045013,479.835358 134.166275,475.484650 
	C111.779083,467.217712 91.393860,467.201416 71.439667,480.503174 
	C22.071535,512.534973 27.973331,587.367126 78.221161,617.643066 
	C85.447433,621.506836 92.673714,625.370605 100.325455,629.839233 
	C101.367126,630.192993 102.390938,630.616089 103.453255,630.889709 
	C112.942451,633.333740 122.438438,635.751343 132.602310,638.607483 
	C135.229385,638.962585 137.857620,639.627441 140.483292,639.617493 
	C150.203278,639.580750 159.922394,639.321289 170.437134,639.444458 
	C180.624664,637.636963 190.812195,635.829468 201.524994,634.178345 
	C201.678497,634.079285 201.832001,633.980286 202.633301,633.957947 
	C203.421539,633.636597 204.209793,633.315308 205.559967,633.075928 
	C206.085342,632.898499 206.610718,632.721069 207.788635,632.453247 
	C208.184174,632.266479 208.579712,632.079651 209.727386,631.912476 
	C218.150986,628.253357 226.574585,624.594238 235.705994,620.899170 
	C248.806198,613.827759 261.042847,605.544495 272.379120,594.971558 
	C273.233551,594.017151 274.089600,593.064148 274.942078,592.107971 
	C283.627289,582.367004 292.311951,572.625549 301.590057,562.596680 
	C308.752930,551.127869 315.915771,539.659058 323.599915,527.829651 
	C324.024261,526.886047 324.448608,525.942444 325.161041,524.778259 
	C325.161041,524.778259 325.149017,524.415588 325.723358,523.988159 
	C331.841766,511.039551 337.960175,498.090973 344.601105,484.651978 
	C346.313751,480.026062 348.015228,475.395966 349.741058,470.774963 
	C356.039886,453.909943 362.346802,437.047913 369.000671,419.607788 
	C376.994324,398.071747 384.987976,376.535706 393.434448,354.646271 
	C393.764923,353.781219 394.095398,352.916168 394.960510,351.556763 
	C395.698639,350.058289 396.436768,348.559784 397.730927,346.692413 
	C400.450317,340.972565 404.736359,338.686798 411.084045,340.175079 
	C413.635712,340.773407 416.356293,340.651215 419.804016,341.085297 
	C429.864258,342.037750 439.924469,342.990204 450.771545,344.190338 
	C457.464844,344.822083 464.158112,345.453827 471.363373,346.437897 
	C472.169037,346.426971 472.974731,346.416046 474.648926,346.739075 
	C477.402649,346.926666 480.156342,347.114258 483.601105,347.691376 
	C495.415497,348.788940 507.229919,349.886505 519.460876,351.294861 
	C520.135620,351.239227 520.810364,351.183563 521.988281,351.538910 
	C522.414978,351.565186 522.841675,351.591461 523.934265,351.868744 
	C532.243896,352.598816 540.553467,353.328888 549.569824,354.472443 
	C553.640991,354.932037 557.712158,355.391632 562.440491,355.925415 
	C555.418945,377.358826 548.610779,398.140869 541.218201,419.355621 
	C540.190186,422.568329 539.162109,425.781006 537.918457,429.588287 
	C537.834839,430.001312 537.751160,430.414337 537.153564,431.341827 
	C536.447998,433.550507 535.858398,435.804352 535.018738,437.960785 
	C527.737976,456.657196 520.412292,475.336182 512.633606,494.554504 
	C505.341522,508.005676 498.049469,521.456848 490.194550,535.266174 
	C485.110291,542.786194 480.026001,550.306213 474.364594,558.184265 
	C464.797729,568.853455 455.230896,579.522583 444.995850,590.450439 
	C426.400757,607.817993 405.311584,621.513000 383.501801,631.652344 
	C403.070007,631.652344 423.533905,631.652344 444.913086,631.855896 
	C455.275726,631.582458 465.638397,631.309021 476.922668,631.225464 
	C484.947296,631.039490 492.971893,630.853516 501.898926,630.876587 
	C505.312103,630.764893 508.725250,630.653198 513.024414,630.769104 
	C518.760864,630.544800 524.497253,630.320557 530.971069,630.282654 
	C531.976318,630.208984 532.981628,630.135315 534.342651,630.330627 
	C534.895691,630.228699 535.448730,630.126770 536.899780,630.180908 
	C539.932739,630.081909 542.965759,629.982910 546.921326,630.063721 
	C557.625671,629.890930 568.330017,629.718079 579.502380,629.671692 
	C579.502380,629.671692 579.955261,629.498596 580.673828,629.650818 
	C581.156067,629.588196 581.638367,629.525574 583.001892,629.712097 
	C587.667053,629.712097 592.332153,629.712097 596.997314,629.712097 
	C596.989563,629.463867 596.981812,629.215576 596.974121,628.967346 
	C595.933594,628.748108 594.893127,628.528931 593.205078,627.983765 
	C583.831970,621.877014 574.033264,616.322937 565.196655,609.519348 
	C554.858215,601.559509 548.702209,590.168213 543.329041,578.203796 
	C543.329041,578.203796 543.117126,577.985779 543.121826,577.294495 
	C542.690552,576.529419 542.259277,575.764343 542.000610,574.255737 
	C541.537476,572.808411 541.074402,571.361084 540.659424,569.409729 
	C540.485352,569.127380 540.311218,568.845093 540.226318,567.774597 
	C537.294739,554.530090 535.708801,541.088379 537.807922,527.664246 
	C540.807617,508.481445 544.657776,489.431915 548.094421,470.316437 
	C548.368652,468.791443 548.252869,467.196350 549.061157,465.425446 
	C549.905457,462.758301 550.751648,460.091766 551.593750,457.423920 
	C560.243652,430.019623 568.892883,402.615112 577.959473,374.690094 
	C578.992188,372.255890 580.254883,369.891479 581.018738,367.375610 
	C584.836426,354.801636 593.414062,347.940765 606.202454,345.939880 
	C607.491760,345.738190 608.731812,345.221527 610.682800,344.941528 
	C611.788513,344.627594 612.894287,344.313660 614.651001,344.093536 
	C615.480225,343.886902 616.309509,343.680298 617.996155,343.469269 
	C624.673035,341.344543 631.349915,339.219849 638.742615,336.991241 
	C640.463745,335.875916 642.184875,334.760559 644.568359,333.216003 
	C644.376526,335.051086 644.345886,336.127991 644.142761,337.171295 
	C640.620483,355.255035 636.893738,373.301178 633.582336,391.423218 
	C628.904297,417.023651 635.050537,439.943542 652.009705,459.652832 
	C660.307373,469.296082 671.020081,474.980072 684.890625,476.051758 
	C695.182800,476.866394 705.114441,475.657349 714.602844,471.264130 
	C735.071472,461.786957 744.591980,447.136627 742.844116,426.590271 
	C742.160889,418.559418 739.343811,411.161926 731.423950,407.320770 
	C723.163879,403.314667 714.386902,402.964691 705.600952,405.199646 
	C700.313538,406.544617 695.650208,409.267944 693.087952,414.386658 
	C688.499023,423.554047 688.210632,439.376129 701.457764,447.378326 
	C706.245483,450.270447 710.667847,453.767273 715.256958,456.988159 
	C715.319275,457.543121 715.381592,458.098114 715.443848,458.653076 
	C710.612854,460.556488 705.781799,462.459869 700.196777,464.352875 
	C698.173645,464.670380 696.150513,464.987915 693.283569,465.132965 
	C692.143433,465.201691 691.003357,465.270416 689.153503,465.100708 
	C687.110779,465.091431 685.068054,465.082153 682.281372,465.003876 
	C681.536133,464.960449 680.790894,464.917023 679.656799,464.250854 
	C677.552612,463.407990 675.430420,462.607178 673.347107,461.715546 
	C656.496033,454.503906 646.349060,441.545532 642.014099,424.067963 
	C637.311340,405.107666 640.446655,386.509857 647.284607,368.766876 
	C653.006653,353.919342 660.464355,339.740662 667.608154,324.986450 
	C667.770142,324.494110 667.932190,324.001801 668.584412,323.134430 
	C668.730286,322.758759 668.876221,322.383087 669.567871,321.614746 
	C677.210083,309.185059 684.814209,296.731659 692.519409,284.341187 
	C694.644104,280.924469 693.318359,278.884399 691.722107,277.898438 
	C681.830261,287.072540 672.369385,295.846863 662.262268,304.891113 
	C653.464539,311.083832 644.666748,317.276550 635.140869,323.703186 
	C625.289307,328.618561 615.001770,332.123291 603.094666,333.171204 
	C599.442200,333.171204 595.789734,333.171204 591.340210,333.171204 
	C592.469788,329.750671 593.134216,327.739960 593.797791,325.729004 
	C597.574036,314.285431 601.350159,302.841858 605.517822,291.056366 
	C605.577332,290.727081 605.636902,290.397766 606.007629,289.430267 
	C606.399597,288.076355 606.791565,286.722412 607.669800,284.805389 
	C615.532227,262.232422 623.394653,239.659470 631.643921,216.833191 
	C631.851074,216.574448 631.921326,216.282730 632.273438,215.388763 
	C633.333862,212.969498 634.394226,210.550232 635.795105,207.781708 
	C635.961792,207.484955 636.013855,207.169296 636.393433,206.390640 
	C636.660156,205.604492 636.926819,204.818359 637.711548,203.595337 
	C643.609985,193.001511 649.484009,182.393997 655.419617,171.821030 
	C657.586975,167.960190 659.900879,164.181564 662.851318,160.249268 
	C663.598145,159.647263 664.492126,159.160828 665.069580,158.425735 
	C672.278748,149.248535 680.957825,141.763809 691.682068,135.735977 
	C706.028809,129.140472 725.926392,130.523804 736.011536,144.933670 
	C737.350159,148.297791 738.955933,151.582901 739.978271,155.040527 
	C743.299316,166.272354 741.804504,177.244720 737.299133,188.521072 
	C736.081421,191.234543 734.863770,193.948013 733.699036,196.657822 
	C733.699036,196.657822 733.675171,196.705185 733.064697,196.943573 
	C721.900085,212.085556 710.735474,227.227539 699.516235,242.443649 
	C705.652039,243.952072 710.119751,242.196533 714.039734,237.727951 
	C722.241272,228.378372 730.750854,219.298996 739.082886,210.037308 
	C739.082886,210.037308 739.059998,210.121902 739.571899,209.912796 
	C739.755310,209.599182 739.938721,209.285583 740.550171,208.781906 
	C740.550171,208.781906 740.773132,208.370071 741.254700,208.124252 
	C741.774475,207.382431 742.294250,206.640625 743.361938,205.521545 
	C749.280334,197.097015 755.198669,188.672485 761.682373,179.810074 
	C767.210876,167.934326 773.920105,156.450180 778.016602,144.099457 
	C785.998169,120.035736 785.223511,96.061592 772.405212,73.396591 
	C767.676331,65.035065 761.593445,57.846085 752.363159,52.763924 
	C748.276794,51.157879 744.190430,49.551830 739.469299,47.487514 
	C718.563660,43.048580 701.390320,50.737320 685.297058,64.191994 
	C678.867310,71.480736 672.437561,78.769485 665.631042,86.212181 
	C665.388306,86.384598 665.275269,86.619438 664.836426,87.373085 
	C664.160278,88.419868 663.484192,89.466652 662.258911,90.951576 
	C659.641724,94.925697 656.587097,98.682327 654.484253,102.912170 
	C646.080444,119.816742 637.972473,136.868393 629.265869,154.204697 
	C629.162903,154.779724 629.059937,155.354752 628.505005,156.324158 
	C628.362549,156.893082 628.220093,157.462021 627.597046,158.553589 
	C624.504333,166.566498 621.168823,174.495728 618.372192,182.610703 
	C613.409241,197.011948 608.773254,211.525864 603.529419,226.534286 
	C603.218689,227.695801 602.907959,228.857300 602.229858,230.556320 
	C601.846497,232.043518 601.463196,233.530731 600.758057,235.569046 
	C600.687744,235.986053 600.617432,236.403061 600.153198,237.330353 
	C599.821594,238.570251 599.489929,239.810150 598.714417,241.660583 
	C596.810913,247.603806 594.898438,253.544159 593.005615,259.490784 
	C586.688354,279.337189 580.378113,299.185822 573.591431,319.568512 
	C571.726685,324.243591 569.861877,328.918640 567.967590,333.667786 
	C561.659607,332.531433 555.304810,331.386658 548.208130,329.933472 
	C541.803467,328.983582 535.398743,328.033691 528.533875,326.890045 
	C528.533875,326.890045 528.043518,326.984406 527.540833,326.637421 
	C526.743958,326.588440 525.947021,326.539490 524.308960,326.186127 
	C511.872803,324.879395 499.436615,323.572662 486.183472,322.064117 
	C481.749329,321.949493 477.289001,322.095428 472.887726,321.653442 
	C467.542450,321.116699 462.246979,320.084076 456.180786,319.050781 
	C452.710175,318.934814 449.186127,319.163452 445.779419,318.635315 
	C437.151337,317.297821 428.575867,315.620605 419.382965,313.770172 
	C413.964111,312.574219 408.545288,311.378265 403.015350,310.157776 
	C407.564941,295.559692 411.851959,281.804077 416.641541,267.536530 
	C420.946259,254.062836 425.251007,240.589127 429.896118,226.527054 
	C432.439575,218.777847 435.034393,211.045029 437.516205,203.276123 
	C443.387939,184.895950 449.205994,166.498627 455.483307,147.712006 
	C455.605591,147.150940 455.727844,146.589859 456.056213,145.572861 
	C456.049713,145.406204 456.043182,145.239548 456.520447,144.542267 
	C457.459534,141.601364 458.579468,138.701538 459.260681,135.702087 
	C459.597168,134.220428 459.124359,132.554977 459.253204,130.460022 
	C459.939270,129.841461 460.625336,129.222900 461.825195,128.052185 
	C470.981689,99.917549 480.138214,71.782898 489.607727,42.686428 
	C477.627991,49.237411 466.841095,55.136089 455.333832,61.117790 
	C445.842896,65.194458 436.351959,69.271118 426.073212,73.462982 
	C416.053802,76.526802 406.034393,79.590614 395.155487,82.604980 
	C385.260681,84.309715 375.365906,86.014458 364.613251,87.648811 
	C360.534576,87.843102 356.440918,87.883217 352.381836,88.278641 
	C348.902405,88.617615 345.462616,89.363258 341.377106,89.546562 
	C340.708588,89.110275 340.089539,88.416901 339.363953,88.277351 
	C331.911285,86.843956 324.441315,85.500313 316.269165,83.824242 
	C308.798370,82.090302 301.327576,80.356361 293.222961,78.171844 
	C287.367493,77.142822 283.058411,73.949074 279.311523,69.341461 
	C273.607452,62.327015 267.400665,55.721401 260.876221,48.341385 
	C254.811234,64.912842 248.039337,80.324501 249.806717,98.037926 
	C252.901779,129.057861 268.810272,151.380600 295.152466,167.656006 
	C295.617432,167.811844 296.082367,167.967697 296.983337,168.685638 
	C297.622314,168.987930 298.261322,169.290207 299.372223,170.034378 
	C304.751862,172.439758 310.131470,174.845139 316.072754,177.759598 
	C324.714325,179.804688 333.355927,181.849762 342.750671,184.249954 
	C352.891968,184.280090 363.033234,184.310242 374.043488,184.331879 
	C383.698090,182.234039 393.352722,180.136200 403.798279,178.092331 
	C407.453278,176.991913 411.129059,175.955414 414.758972,174.777740 
	C422.242188,172.349915 423.313385,173.137070 422.954773,181.080582 
	C422.902985,182.227814 422.735443,183.391312 422.450012,184.503235 
	C418.925140,198.235153 415.345703,211.953110 411.848633,225.692062 
	C411.411011,227.411392 411.365234,229.230499 410.940948,231.712723 
	C409.087433,236.601639 407.215454,241.483643 405.383698,246.380692 
	C398.874512,263.782990 392.379059,281.190430 385.352112,299.100128 
	C384.382294,300.987244 383.476379,302.910583 382.430450,304.754517 
	C379.482910,309.951050 377.433380,315.931976 370.186768,318.139893 
	C367.794281,318.684265 365.427460,319.450012 363.004425,319.730530 
	C356.356201,320.500275 349.684387,321.066223 342.194153,321.657806 
	C337.137299,323.811310 332.080414,325.964813 326.446411,328.131989 
	C326.170410,328.386322 325.894409,328.640625 325.246002,328.866241 
	C325.246002,328.866241 324.995483,329.143311 324.333435,329.200470 
	C322.845520,330.104706 321.357574,331.008942 319.951843,331.961548 
	C319.951843,331.961548 319.927094,331.869415 319.242065,331.948883 
	C317.713074,332.848969 316.184082,333.749084 314.858795,334.661469 
	C314.858795,334.661469 314.671295,334.580902 314.000885,334.712189 
M742.246765,803.954102 
	C742.303528,804.103210 742.360291,804.252258 742.417114,804.401306 
	C742.259155,804.275696 742.101196,804.150085 741.633911,803.260376 
	C743.182190,802.187622 744.730408,801.114868 746.233215,800.073608 
	C745.774231,798.939331 745.218323,796.921875 744.199402,795.174377 
	C741.665771,790.828979 736.348083,791.279114 735.640320,795.937012 
	C735.363220,797.760437 736.483948,799.796265 736.968079,801.735291 
	C738.129333,801.091980 738.223572,800.795288 738.219421,800.499939 
	C738.190491,798.434326 738.141113,796.369019 738.098328,794.303650 
	C739.354675,794.331970 740.610962,794.360229 741.867249,794.388550 
	C741.818726,796.315186 741.727478,798.242065 741.736816,800.168457 
	C741.742981,801.449524 741.892761,802.729980 742.246765,803.954102 
z"/>
<path fill="#213263" opacity="1.000000" stroke="none" 
	d="
M72.078842,480.349823 
	C91.393860,467.201416 111.779083,467.217712 134.166275,475.484650 
	C129.045013,479.835358 124.736794,483.669189 120.243652,487.272430 
	C113.191986,492.927460 109.242867,500.054810 108.759224,509.663513 
	C107.661636,513.363892 107.019409,516.599792 106.377174,519.835754 
	C106.286774,521.273315 104.569046,522.605347 104.450233,524.067322 
	C104.013031,529.446838 104.142647,534.870544 103.991676,540.275696 
	C103.686775,551.191772 103.260368,562.105164 103.042656,573.022766 
	C102.947052,577.816956 101.926842,583.192383 103.705376,587.264954 
	C105.699661,591.831543 105.943375,596.114929 105.988335,600.698303 
	C106.038818,605.844177 105.005402,611.247620 106.246559,616.075500 
	C107.999146,622.892700 105.841270,626.689758 99.899979,629.234436 
	C92.673714,625.370605 85.447433,621.506836 78.364563,617.215454 
	C83.445892,614.709167 78.838394,613.064453 78.837418,611.226746 
	C79.794922,608.865295 80.133141,606.516846 80.025383,604.189026 
	C79.919968,601.912048 79.110580,599.663391 79.044456,597.389648 
	C78.812553,589.416016 78.793510,581.436523 78.646416,573.460144 
	C78.396805,559.924622 78.055374,546.390686 77.862915,532.854492 
	C77.756516,525.370667 78.209618,517.865479 77.805511,510.402679 
	C77.310738,501.265625 76.182724,492.162842 75.328506,483.045258 
	C75.990929,482.405640 75.188034,482.286285 74.499802,481.939423 
	C73.643326,481.507751 72.881523,480.888214 72.078842,480.349823 
z"/>
<path fill="#1A1955" opacity="1.000000" stroke="none" 
	d="
M178.981857,543.124573 
	C186.663605,542.251343 194.345352,541.378113 202.484070,540.967529 
	C202.638031,547.046082 201.965881,552.673340 202.137894,558.274658 
	C202.303345,563.661865 203.740921,569.008850 203.922562,574.396973 
	C204.465073,590.488953 204.678055,606.592163 204.990204,622.691589 
	C205.056778,626.124512 204.998688,629.559814 204.998047,632.994019 
	C204.209793,633.315308 203.421539,633.636597 202.204422,633.771912 
	C201.516937,633.731262 201.258331,633.876587 200.999725,634.021973 
	C190.812195,635.829468 180.624664,637.636963 169.535110,639.250183 
	C165.153915,639.055908 161.674728,639.055908 156.932709,639.055908 
	C158.837280,636.266296 159.702164,634.999573 159.799896,634.856384 
	C159.210480,632.506775 158.520905,631.156921 158.599350,629.853271 
	C159.346710,617.435669 159.258194,605.130554 156.959442,592.784668 
	C155.764359,586.366211 155.202072,579.371643 156.491302,573.074890 
	C157.840378,566.485718 158.063660,560.503174 156.287781,554.090393 
	C154.721069,548.433044 158.516373,544.136841 164.275253,543.973083 
	C169.181534,543.833557 174.079956,543.418030 178.981857,543.124573 
z"/>
<path fill="#36898E" opacity="1.000000" stroke="none" 
	d="
M545.998718,629.883911 
	C542.965759,629.982910 539.932739,630.081909 536.301636,629.876282 
	C535.131348,629.734985 534.559082,629.898315 533.986877,630.061584 
	C532.981628,630.135315 531.976318,630.208984 530.124512,630.150146 
	C525.841492,629.967896 522.405090,629.918152 518.992676,629.489136 
	C522.506592,626.148804 522.542236,622.514954 521.134949,618.555115 
	C520.921204,617.953796 521.019592,617.235046 521.006714,616.569946 
	C520.668457,599.116882 520.064575,581.663635 520.073181,564.210693 
	C520.082458,545.424438 520.823486,526.639099 520.906433,507.851929 
	C520.931946,502.069702 518.741272,496.912994 513.099915,494.020325 
	C520.412292,475.336182 527.737976,456.657196 535.018738,437.960785 
	C535.858398,435.804352 536.447998,433.550507 537.757385,431.236816 
	C540.348938,432.282013 542.336609,433.432220 545.062561,435.009583 
	C543.967834,431.268799 543.111328,428.341919 542.250671,425.400787 
	C540.715332,426.740814 539.424683,427.867249 538.134033,428.993713 
	C539.162109,425.781006 540.190186,422.568329 541.900757,419.168274 
	C543.362305,419.799774 544.952576,420.864563 544.790710,421.398224 
	C543.609924,425.293610 545.924194,427.735474 548.317200,429.845947 
	C550.708374,431.954926 550.339050,433.313080 548.368835,435.397491 
	C547.187073,436.647766 546.057495,438.642761 546.119263,440.256531 
	C546.444092,448.741577 544.298523,457.472809 548.318298,465.633820 
	C548.252869,467.196350 548.368652,468.791443 548.094421,470.316437 
	C544.657776,489.431915 540.807617,508.481445 537.807922,527.664246 
	C535.708801,541.088379 537.294739,554.530090 540.179016,568.421143 
	C540.177979,569.414246 540.337830,569.696228 540.611328,569.913757 
	C541.074402,571.361084 541.537476,572.808411 541.610840,574.466675 
	C540.231323,574.779297 539.241577,574.880981 538.251831,574.982666 
	C538.745667,575.891968 539.025330,577.173950 539.789368,577.613037 
	C540.676880,578.123047 541.989197,577.893982 543.117126,577.985718 
	C543.117126,577.985779 543.329041,578.203796 543.113708,578.722046 
	C539.320801,583.090271 541.581726,587.286377 542.980835,590.793213 
	C546.453430,599.497131 544.791138,608.263733 544.481567,617.051392 
	C544.430786,618.492554 544.503052,619.938354 544.443054,621.378906 
	C544.386841,622.725647 544.230591,624.068298 544.142578,625.122620 
	C544.769348,626.730408 545.384033,628.307129 545.998718,629.883911 
z"/>
<path fill="#243D68" opacity="1.000000" stroke="none" 
	d="
M71.759254,480.426514 
	C72.881523,480.888214 73.643326,481.507751 74.499802,481.939423 
	C75.188034,482.286285 75.990929,482.405640 75.328506,483.045258 
	C76.182724,492.162842 77.310738,501.265625 77.805511,510.402679 
	C78.209618,517.865479 77.756516,525.370667 77.862915,532.854492 
	C78.055374,546.390686 78.396805,559.924622 78.646416,573.460144 
	C78.793510,581.436523 78.812553,589.416016 79.044456,597.389648 
	C79.110580,599.663391 79.919968,601.912048 80.025383,604.189026 
	C80.133141,606.516846 79.794922,608.865295 78.837418,611.226746 
	C78.838394,613.064453 83.445892,614.709167 78.175522,616.929443 
	C27.973331,587.367126 22.071535,512.534973 71.759254,480.426514 
z"/>
<path fill="#43C3AB" opacity="1.000000" stroke="none" 
	d="
M735.844360,144.250397 
	C725.926392,130.523804 706.028809,129.140472 691.136108,135.475815 
	C689.789001,134.242065 688.987915,133.268478 688.186829,132.294891 
	C691.967285,130.011398 688.885559,126.937614 688.872437,124.364807 
	C688.778809,105.942192 688.386230,87.520012 687.913574,69.102180 
	C687.869202,67.374481 686.614746,65.677841 685.922119,63.966778 
	C701.390320,50.737320 718.563660,43.048580 739.392090,47.736794 
	C736.243347,47.735615 734.380493,49.299892 734.386292,52.216377 
	C734.399109,58.710606 734.767944,65.204308 735.001038,71.697891 
	C735.664917,90.193123 736.319885,108.688698 737.009827,127.182961 
	C737.175659,131.630310 737.609497,136.073380 737.601440,140.517838 
	C737.599182,141.763077 736.461304,143.006256 735.844360,144.250397 
z"/>
<path fill="#2E667C" opacity="1.000000" stroke="none" 
	d="
M396.014984,82.654434 
	C406.034393,79.590614 416.053802,76.526802 426.501251,73.837723 
	C431.124115,79.639923 430.078827,85.998283 429.960297,92.124924 
	C429.777649,101.566666 428.908447,111.011749 429.094818,120.440300 
	C429.412170,136.497131 430.385193,152.539993 430.964844,168.592972 
	C431.404633,180.771835 431.593872,192.959778 432.036499,205.138519 
	C432.187866,209.303284 432.971130,213.270035 429.313995,216.774536 
	C427.766846,218.257111 427.378113,221.284058 427.165771,223.671585 
	C427.070770,224.740234 428.705780,225.962753 429.555725,227.115448 
	C425.251007,240.589127 420.946259,254.062836 415.977386,267.765228 
	C414.542023,266.810333 413.238373,265.690094 413.088776,264.432556 
	C412.298157,257.786713 411.798157,251.106262 411.145844,243.865723 
	C414.876099,240.570404 415.246674,233.499237 411.137939,231.003372 
	C411.365234,229.230499 411.411011,227.411392 411.848633,225.692062 
	C415.345703,211.953110 418.925140,198.235153 422.450012,184.503235 
	C422.735443,183.391312 422.902985,182.227814 422.954773,181.080582 
	C423.313385,173.137070 422.242188,172.349915 414.758972,174.777740 
	C411.129059,175.955414 407.453278,176.991913 403.526489,177.751633 
	C403.393127,174.564301 403.561584,171.718475 403.637726,168.870178 
	C403.649200,168.441467 403.315674,167.921097 402.996552,167.578339 
	C398.158539,162.382309 401.189362,157.052505 402.533142,151.649231 
	C403.269531,148.688049 403.528656,145.561951 403.616089,142.499191 
	C403.695709,139.709045 403.087524,136.905090 403.068756,134.105301 
	C402.984619,121.538315 403.001678,108.970665 402.984283,96.403252 
	C402.980164,93.431541 402.983704,90.459816 402.983704,86.704048 
	C402.128876,86.548103 400.426758,86.598854 399.131195,85.898064 
	C397.875122,85.218628 397.036774,83.766960 396.014984,82.654434 
M429.083801,204.717270 
	C429.030151,204.227509 428.976471,203.737747 428.922852,203.247986 
	C428.486206,203.360886 428.049530,203.473801 427.612885,203.586716 
	C427.908203,204.005402 428.203522,204.424103 429.083801,204.717270 
z"/>
<path fill="#233865" opacity="1.000000" stroke="none" 
	d="
M294.941864,167.196777 
	C268.810272,151.380600 252.901779,129.057861 249.806717,98.037926 
	C248.039337,80.324501 254.811234,64.912842 260.876221,48.341385 
	C267.400665,55.721401 273.607452,62.327015 279.311523,69.341461 
	C283.058411,73.949074 287.367493,77.142822 293.138000,78.495453 
	C291.190063,79.423798 288.983398,80.331184 291.128052,82.481331 
	C294.510498,85.872459 294.406891,88.387123 289.303253,90.674736 
	C294.793976,93.364807 295.022247,97.786224 295.007599,102.339516 
	C294.980774,110.669243 295.056458,118.999680 294.972046,127.328636 
	C294.938538,130.632904 295.337219,134.204636 294.253296,137.187332 
	C290.548981,147.380798 292.593811,157.249985 294.941864,167.196777 
z"/>
<path fill="#2F6E80" opacity="1.000000" stroke="none" 
	d="
M429.725922,226.821259 
	C428.705780,225.962753 427.070770,224.740234 427.165771,223.671585 
	C427.378113,221.284058 427.766846,218.257111 429.313995,216.774536 
	C432.971130,213.270035 432.187866,209.303284 432.036499,205.138519 
	C431.593872,192.959778 431.404633,180.771835 430.964844,168.592972 
	C430.385193,152.539993 429.412170,136.497131 429.094818,120.440300 
	C428.908447,111.011749 429.777649,101.566666 429.960297,92.124924 
	C430.078827,85.998283 431.124115,79.639923 426.895142,73.780128 
	C436.351959,69.271118 445.842896,65.194458 455.957397,61.324646 
	C456.739288,63.941559 456.930084,66.349998 457.049530,68.761978 
	C457.360718,75.043152 457.592590,81.328598 457.947937,87.607140 
	C458.242065,92.803665 458.611206,97.997482 459.046906,103.184120 
	C459.759033,111.661102 460.552338,120.131279 461.311371,128.604340 
	C460.625336,129.222900 459.939270,129.841461 458.931793,130.955536 
	C457.268341,130.876007 455.926300,130.300995 453.998688,129.475067 
	C454.706543,134.892731 455.371613,139.982819 456.036682,145.072891 
	C456.043182,145.239548 456.049713,145.406204 455.731995,145.994904 
	C455.287079,146.980713 455.166382,147.544464 455.045715,148.108231 
	C449.205994,166.498627 443.387939,184.895950 437.516205,203.276123 
	C435.034393,211.045029 432.439575,218.777847 429.725922,226.821259 
z"/>
<path fill="#2A5B77" opacity="1.000000" stroke="none" 
	d="
M395.585236,82.629715 
	C397.036774,83.766960 397.875122,85.218628 399.131195,85.898064 
	C400.426758,86.598854 402.128876,86.548103 402.983704,86.704048 
	C402.983704,90.459816 402.980164,93.431541 402.984283,96.403252 
	C403.001678,108.970665 402.984619,121.538315 403.068756,134.105301 
	C403.087524,136.905090 403.695709,139.709045 403.616089,142.499191 
	C403.528656,145.561951 403.269531,148.688049 402.533142,151.649231 
	C401.189362,157.052505 398.158539,162.382309 402.996552,167.578339 
	C403.315674,167.921097 403.649200,168.441467 403.637726,168.870178 
	C403.561584,171.718475 403.393127,174.564301 403.131042,177.724640 
	C393.352722,180.136200 383.698090,182.234039 373.364014,184.011658 
	C370.607544,183.235291 368.530518,182.779175 365.688049,182.154953 
	C368.324402,180.989502 370.045105,180.228851 371.601166,179.540955 
	C370.970123,177.314804 370.126587,175.621246 370.060272,173.897812 
	C369.614655,162.312180 369.224487,150.722061 369.026276,139.129822 
	C368.746124,122.741425 368.687439,106.349091 368.344635,89.962410 
	C368.328583,89.194977 366.471039,88.466064 365.471100,87.719208 
	C375.365906,86.014458 385.260681,84.309715 395.585236,82.629715 
z"/>
<path fill="#1F2D60" opacity="1.000000" stroke="none" 
	d="
M271.796600,595.180359 
	C261.042847,605.544495 248.806198,613.827759 235.350021,620.452881 
	C234.995956,602.523376 235.000137,585.040161 234.998932,567.557007 
	C234.998184,556.817749 235.029755,546.078064 234.926239,535.339722 
	C234.914856,534.159058 234.107498,532.985962 233.669296,531.809387 
	C242.723465,527.147522 251.882172,522.673889 260.779663,517.729980 
	C264.269073,515.791138 267.173309,512.799011 270.660461,510.579102 
	C269.982605,513.895386 268.351532,516.872925 268.128113,519.952576 
	C267.679138,526.141174 267.800323,532.393066 268.040588,538.605164 
	C268.563660,552.130554 269.415131,565.643677 269.884857,579.170349 
	C269.995331,582.351196 269.816498,585.880127 268.542053,588.692017 
	C266.619629,592.933594 266.840393,594.135864 271.796600,595.180359 
z"/>
<path fill="#1D225A" opacity="1.000000" stroke="none" 
	d="
M178.520599,543.044678 
	C174.079956,543.418030 169.181534,543.833557 164.275253,543.973083 
	C158.516373,544.136841 154.721069,548.433044 156.287781,554.090393 
	C158.063660,560.503174 157.840378,566.485718 156.491302,573.074890 
	C155.202072,579.371643 155.764359,586.366211 156.959442,592.784668 
	C159.258194,605.130554 159.346710,617.435669 158.599350,629.853271 
	C158.520905,631.156921 159.210480,632.506775 159.799896,634.856384 
	C159.702164,634.999573 158.837280,636.266296 156.932709,639.055908 
	C161.674728,639.055908 165.153915,639.055908 169.137466,639.100708 
	C159.922394,639.321289 150.203278,639.580750 140.483292,639.617493 
	C137.857620,639.627441 135.229385,638.962585 132.279816,638.005859 
	C130.691696,635.029053 128.414993,632.689148 128.330841,630.272888 
	C127.906281,618.082153 128.053391,605.871521 127.998802,593.667908 
	C127.978020,589.020447 128.205856,584.355530 127.885086,579.728760 
	C126.883560,565.282898 125.696411,550.851562 128.145172,536.432190 
	C128.566345,536.881714 128.987518,537.331238 129.711746,538.250122 
	C131.270187,542.982056 132.431549,538.310730 133.645966,538.681335 
	C148.215027,542.549805 163.075287,543.398987 178.520599,543.044678 
z"/>
<path fill="#33818A" opacity="1.000000" stroke="none" 
	d="
M512.866760,494.287415 
	C518.741272,496.912994 520.931946,502.069702 520.906433,507.851929 
	C520.823486,526.639099 520.082458,545.424438 520.073181,564.210693 
	C520.064575,581.663635 520.668457,599.116882 521.006714,616.569946 
	C521.019592,617.235046 520.921204,617.953796 521.134949,618.555115 
	C522.542236,622.514954 522.506592,626.148804 518.593933,629.524292 
	C516.160217,630.139648 514.149353,630.340576 512.138428,630.541504 
	C508.725250,630.653198 505.312103,630.764893 501.428284,630.406616 
	C500.309479,628.133118 499.229156,626.362427 499.089294,624.520325 
	C498.533081,617.194885 498.114990,609.851013 497.929108,602.506836 
	C497.447327,583.470642 497.408142,564.416077 496.464630,545.404968 
	C496.286743,541.820374 492.746307,538.402710 490.757446,534.908020 
	C498.049469,521.456848 505.341522,508.005676 512.866760,494.287415 
z"/>
<path fill="#42BCA7" opacity="1.000000" stroke="none" 
	d="
M735.927979,144.592026 
	C736.461304,143.006256 737.599182,141.763077 737.601440,140.517838 
	C737.609497,136.073380 737.175659,131.630310 737.009827,127.182961 
	C736.319885,108.688698 735.664917,90.193123 735.001038,71.697891 
	C734.767944,65.204308 734.399109,58.710606 734.386292,52.216377 
	C734.380493,49.299892 736.243347,47.735615 739.709473,47.965927 
	C744.190430,49.551830 748.276794,51.157879 752.682739,53.320320 
	C754.618164,56.446232 756.234009,59.015751 757.933533,61.718246 
	C757.326294,62.997372 755.567688,64.966179 755.597290,66.907707 
	C755.895691,86.449593 756.453247,105.987976 757.013855,125.525169 
	C757.229614,133.045105 757.745422,140.557022 757.918701,148.077332 
	C758.009888,152.037918 758.539062,156.305588 757.323853,159.913712 
	C754.716431,167.655487 757.193481,173.974777 761.117065,180.247971 
	C755.198669,188.672485 749.280334,197.097015 742.852783,205.525726 
	C741.607544,205.336594 740.871460,205.143265 740.135315,204.949951 
	C740.347961,206.089981 740.560547,207.230026 740.773132,208.370071 
	C740.773132,208.370071 740.550171,208.781906 740.090210,208.998627 
	C739.440125,209.517517 739.250061,209.819717 739.059998,210.121918 
	C739.059998,210.121902 739.082886,210.037308 738.750488,209.989304 
	C733.844849,206.601486 734.006042,201.565170 733.675171,196.705185 
	C733.675171,196.705185 733.699036,196.657822 734.076782,196.759827 
	C736.070679,195.185379 737.756104,193.568420 739.270813,191.804871 
	C739.927612,191.040222 740.232788,189.973587 740.697754,189.044144 
	C739.703674,188.697815 738.709656,188.351486 737.715576,188.005157 
	C741.804504,177.244720 743.299316,166.272354 739.978271,155.040527 
	C738.955933,151.582901 737.350159,148.297791 735.927979,144.592026 
M742.423035,185.484421 
	C742.423035,185.484421 742.521851,185.428009 742.423035,185.484421 
z"/>
<path fill="#1D225A" opacity="1.000000" stroke="none" 
	d="
M233.470703,531.785156 
	C234.107498,532.985962 234.914856,534.159058 234.926239,535.339722 
	C235.029755,546.078064 234.998184,556.817749 234.998932,567.557007 
	C235.000137,585.040161 234.995956,602.523376 234.996124,620.470825 
	C226.574585,624.594238 218.150986,628.253357 209.156525,631.696777 
	C208.102478,631.835266 207.619293,632.189514 207.136093,632.543701 
	C206.610718,632.721069 206.085342,632.898499 205.279007,633.034973 
	C204.998688,629.559814 205.056778,626.124512 204.990204,622.691589 
	C204.678055,606.592163 204.465073,590.488953 203.922562,574.396973 
	C203.740921,569.008850 202.303345,563.661865 202.137894,558.274658 
	C201.965881,552.673340 202.638031,547.046082 202.914017,540.924255 
	C211.731720,537.985718 220.576462,535.553101 230.124512,533.085327 
	C231.548126,532.714600 232.268433,532.379028 232.988739,532.043457 
	C232.988739,532.043457 233.272125,531.760986 233.470703,531.785156 
z"/>
<path fill="#45C3AB" opacity="1.000000" stroke="none" 
	d="
M689.863220,465.339172 
	C691.003357,465.270416 692.143433,465.201691 693.993652,465.427399 
	C696.786072,465.268982 698.868469,464.816162 700.950806,464.363281 
	C705.781799,462.459869 710.612854,460.556488 715.443848,458.653076 
	C715.381592,458.098114 715.319275,457.543121 715.256958,456.988159 
	C710.667847,453.767273 706.245483,450.270447 701.457764,447.378326 
	C688.210632,439.376129 688.499023,423.554047 693.087952,414.386658 
	C695.650208,409.267944 700.313538,406.544617 705.600952,405.199646 
	C714.386902,402.964691 723.163879,403.314667 731.423950,407.320770 
	C739.343811,411.161926 742.160889,418.559418 742.844116,426.590271 
	C744.591980,447.136627 735.071472,461.786957 714.602844,471.264130 
	C705.114441,475.657349 695.182800,476.866394 684.423950,475.562866 
	C682.770996,473.792999 681.584717,472.512024 680.260010,471.081665 
	C680.927490,470.479156 681.766113,469.722198 683.118469,468.501526 
	C680.743896,468.501526 679.145874,468.501526 677.295410,468.501526 
	C678.415283,467.024261 679.230469,465.948944 680.045654,464.873596 
	C680.790894,464.917023 681.536133,464.960449 682.913330,465.297333 
	C685.651306,465.506927 687.757263,465.423035 689.863220,465.339172 
z"/>
<path fill="#275072" opacity="1.000000" stroke="none" 
	d="
M365.042175,87.684006 
	C366.471039,88.466064 368.328583,89.194977 368.344635,89.962410 
	C368.687439,106.349091 368.746124,122.741425 369.026276,139.129822 
	C369.224487,150.722061 369.614655,162.312180 370.060272,173.897812 
	C370.126587,175.621246 370.970123,177.314804 371.601166,179.540955 
	C370.045105,180.228851 368.324402,180.989502 365.688049,182.154953 
	C368.530518,182.779175 370.607544,183.235291 372.929565,184.015900 
	C363.033234,184.310242 352.891968,184.280090 342.381775,183.722427 
	C342.522766,182.028275 343.032623,180.861649 343.324493,180.193863 
	C342.630371,178.298767 341.556610,176.746475 341.618652,175.241013 
	C341.737152,172.366516 342.897064,169.523544 342.932129,166.659012 
	C343.088409,153.889542 343.126587,141.115265 342.941559,128.346573 
	C342.860474,122.754044 341.896729,117.176056 341.776062,111.581932 
	C341.620453,104.369308 341.908386,97.147125 342.005280,89.929047 
	C345.462616,89.363258 348.902405,88.617615 352.381836,88.278641 
	C356.440918,87.883217 360.534576,87.843102 365.042175,87.684006 
z"/>
<path fill="#233865" opacity="1.000000" stroke="none" 
	d="
M272.087860,595.075928 
	C266.840393,594.135864 266.619629,592.933594 268.542053,588.692017 
	C269.816498,585.880127 269.995331,582.351196 269.884857,579.170349 
	C269.415131,565.643677 268.563660,552.130554 268.040588,538.605164 
	C267.800323,532.393066 267.679138,526.141174 268.128113,519.952576 
	C268.351532,516.872925 269.982605,513.895386 270.987122,510.497253 
	C279.028168,502.451172 287.058990,494.779419 295.675842,487.167480 
	C295.944305,488.858063 295.626709,490.488800 295.166199,492.853302 
	C301.100006,491.632812 300.208954,495.749268 299.946075,498.988373 
	C299.263794,507.394318 302.225403,516.200806 297.202240,524.174866 
	C296.667480,525.023743 296.898743,526.463684 297.022949,527.602356 
	C298.306610,539.367432 295.919128,551.548706 300.996704,562.884216 
	C292.311951,572.625549 283.627289,582.367004 274.942078,592.107971 
	C274.089600,593.064148 273.233551,594.017151 272.087860,595.075928 
z"/>
<path fill="#1F2D60" opacity="1.000000" stroke="none" 
	d="
M127.936722,536.222778 
	C125.696411,550.851562 126.883560,565.282898 127.885086,579.728760 
	C128.205856,584.355530 127.978020,589.020447 127.998802,593.667908 
	C128.053391,605.871521 127.906281,618.082153 128.330841,630.272888 
	C128.414993,632.689148 130.691696,635.029053 131.944870,637.790466 
	C122.438438,635.751343 112.942451,633.333740 103.453255,630.889709 
	C102.390938,630.616089 101.367126,630.192993 100.112717,629.536865 
	C105.841270,626.689758 107.999146,622.892700 106.246559,616.075500 
	C105.005402,611.247620 106.038818,605.844177 105.988335,600.698303 
	C105.943375,596.114929 105.699661,591.831543 103.705376,587.264954 
	C101.926842,583.192383 102.947052,577.816956 103.042656,573.022766 
	C103.260368,562.105164 103.686775,551.191772 103.991676,540.275696 
	C104.142647,534.870544 104.013031,529.446838 104.450233,524.067322 
	C104.569046,522.605347 106.286774,521.273315 106.377174,519.835754 
	C107.019409,516.599792 107.661636,513.363892 108.658875,510.062958 
	C108.930054,520.551270 114.156807,527.959351 122.758247,533.791504 
	C122.902786,535.002930 123.119110,535.749207 123.335434,536.495422 
	C123.890923,535.998413 124.446396,535.501343 125.001877,535.004333 
	C125.910683,535.340637 126.819481,535.677002 127.936722,536.222778 
z"/>
<path fill="#26486D" opacity="1.000000" stroke="none" 
	d="
M341.691193,89.737808 
	C341.908386,97.147125 341.620453,104.369308 341.776062,111.581932 
	C341.896729,117.176056 342.860474,122.754044 342.941559,128.346573 
	C343.126587,141.115265 343.088409,153.889542 342.932129,166.659012 
	C342.897064,169.523544 341.737152,172.366516 341.618652,175.241013 
	C341.556610,176.746475 342.630371,178.298767 343.324493,180.193863 
	C343.032623,180.861649 342.522766,182.028275 342.005188,183.544876 
	C333.355927,181.849762 324.714325,179.804688 316.213654,177.379486 
	C316.902985,175.420151 317.997498,173.809479 317.908569,172.267014 
	C317.437988,164.104813 316.346313,155.970627 316.072418,147.806519 
	C315.511841,131.098785 315.343506,114.378006 314.994110,97.663010 
	C314.908081,93.547699 317.859375,88.785599 311.212860,86.058006 
	C313.977722,85.133873 315.476959,84.632751 316.976196,84.131622 
	C324.441315,85.500313 331.911285,86.843956 339.363953,88.277351 
	C340.089539,88.416901 340.708588,89.110275 341.691193,89.737808 
z"/>
<path fill="#3A9393" opacity="1.000000" stroke="none" 
	d="
M548.689697,465.529633 
	C544.298523,457.472809 546.444092,448.741577 546.119263,440.256531 
	C546.057495,438.642761 547.187073,436.647766 548.368835,435.397491 
	C550.339050,433.313080 550.708374,431.954926 548.317200,429.845947 
	C545.924194,427.735474 543.609924,425.293610 544.790710,421.398224 
	C544.952576,420.864563 543.362305,419.799774 542.192932,418.951904 
	C548.610779,398.140869 555.418945,377.358826 562.440491,355.925415 
	C557.712158,355.391632 553.640991,354.932037 549.589966,354.236115 
	C550.579102,353.756714 551.548218,353.513611 551.595154,353.501831 
	C549.429810,350.977722 546.100708,348.786835 545.446289,345.973755 
	C544.178528,340.524261 544.234680,334.681366 548.949951,330.241882 
	C555.304810,331.386658 561.659607,332.531433 567.967590,333.667786 
	C569.861877,328.918640 571.726685,324.243591 574.117493,319.549072 
	C575.015076,320.270935 575.711548,321.012970 575.709778,321.753296 
	C575.680481,333.870758 575.582520,345.988220 575.457031,358.105194 
	C575.396973,363.904785 573.057007,369.969360 577.542236,375.210632 
	C568.892883,402.615112 560.243652,430.019623 551.593750,457.423920 
	C550.751648,460.091766 549.905457,462.758301 548.689697,465.529633 
z"/>
<path fill="#40B5A4" opacity="1.000000" stroke="none" 
	d="
M761.399719,180.029022 
	C757.193481,173.974777 754.716431,167.655487 757.323853,159.913712 
	C758.539062,156.305588 758.009888,152.037918 757.918701,148.077332 
	C757.745422,140.557022 757.229614,133.045105 757.013855,125.525169 
	C756.453247,105.987976 755.895691,86.449593 755.597290,66.907707 
	C755.567688,64.966179 757.326294,62.997372 757.933533,61.718246 
	C756.234009,59.015751 754.618164,56.446232 753.001343,53.499676 
	C761.593445,57.846085 767.676331,65.035065 772.405212,73.396591 
	C785.223511,96.061592 785.998169,120.035736 778.016602,144.099457 
	C773.920105,156.450180 767.210876,167.934326 761.399719,180.029022 
z"/>
<path fill="#40B1A2" opacity="1.000000" stroke="none" 
	d="
M635.951233,206.834732 
	C636.013855,207.169296 635.961792,207.484955 635.201233,207.922348 
	C632.924133,208.756348 629.837769,209.430984 629.828186,210.146667 
	C629.802429,212.074432 631.089050,214.019699 631.854736,215.958038 
	C631.921326,216.282730 631.851074,216.574448 631.077637,216.904388 
	C625.680176,213.416672 624.468628,209.802933 627.861145,206.422165 
	C630.376526,203.915451 630.032227,202.473099 627.981018,200.300659 
	C627.376465,199.660370 627.161194,198.520294 627.042175,197.574661 
	C626.055908,189.740219 625.077942,181.903564 624.252991,174.051224 
	C624.127808,172.860229 624.809937,171.586365 625.109070,170.348511 
	C626.100952,166.243240 627.088440,162.136887 628.077637,158.030945 
	C628.220093,157.462021 628.362549,156.893082 628.922607,156.363098 
	C629.834351,156.216156 630.328430,156.030273 630.822510,155.844391 
	C630.466675,155.184814 630.110840,154.525223 629.755066,153.865631 
	C637.972473,136.868393 646.080444,119.816742 654.484253,102.912170 
	C656.587097,98.682327 659.641724,94.925697 662.583740,91.152985 
	C661.941467,97.853477 660.269775,104.340683 660.159912,110.854218 
	C659.956909,122.892159 660.738098,134.944397 660.936096,146.993530 
	C660.971497,149.147690 659.682434,151.363327 659.887573,153.464371 
	C660.117126,155.815887 661.351074,158.069321 662.147949,160.365448 
	C659.900879,164.181564 657.586975,167.960190 655.419617,171.821030 
	C649.484009,182.393997 643.609985,193.001511 637.165771,203.975189 
	C636.397034,205.181610 636.174133,206.008179 635.951233,206.834732 
M632.718750,158.915268 
	C632.228149,158.969025 631.737488,159.022766 631.246887,159.076523 
	C631.359985,159.513947 631.473083,159.951370 631.586182,160.388809 
	C632.005615,160.092957 632.425049,159.797119 632.718750,158.915268 
M635.718750,199.915146 
	C635.227905,199.968918 634.737061,200.022690 634.246216,200.076447 
	C634.359375,200.513977 634.472534,200.951492 634.585693,201.389023 
	C635.005371,201.093109 635.424988,200.797211 635.718750,199.915146 
M628.691467,176.504700 
	C629.024658,175.968811 629.357849,175.432922 629.691040,174.897018 
	C629.421387,174.764923 629.151672,174.632843 628.882019,174.500763 
	C628.679993,175.025650 628.478027,175.550537 628.691467,176.504700 
M633.409241,165.195084 
	C633.791809,165.199463 634.174438,165.203842 634.557007,165.208221 
	C634.558716,165.049469 634.571106,164.752731 634.560547,164.751907 
	C634.179810,164.722244 633.796997,164.720215 633.409241,165.195084 
z"/>
<path fill="#3C9D98" opacity="1.000000" stroke="none" 
	d="
M577.750854,374.950378 
	C573.057007,369.969360 575.396973,363.904785 575.457031,358.105194 
	C575.582520,345.988220 575.680481,333.870758 575.709778,321.753296 
	C575.711548,321.012970 575.015076,320.270935 574.354370,319.281647 
	C580.378113,299.185822 586.688354,279.337189 593.005615,259.490784 
	C594.898438,253.544159 596.810913,247.603806 599.174500,241.617432 
	C599.968445,242.876282 600.302246,244.178268 600.636108,245.480240 
	C601.204590,245.368820 601.773071,245.257401 602.341553,245.145966 
	C601.743408,242.370667 601.145203,239.595367 600.547119,236.820068 
	C600.617432,236.403061 600.687744,235.986053 601.231323,235.434280 
	C603.123413,234.501236 604.542175,233.702972 605.960938,232.904694 
	C604.839722,231.942719 603.718506,230.980759 602.597229,230.018799 
	C602.907959,228.857300 603.218689,227.695801 604.151001,226.278183 
	C608.575745,227.564041 608.283081,230.916672 607.773071,233.890976 
	C606.953430,238.670670 605.589661,243.357056 604.360596,248.479492 
	C604.422913,248.474289 603.385376,248.560989 603.803772,248.526031 
	C603.803772,255.707306 603.673889,262.402649 603.843872,269.090424 
	C603.986145,274.684875 602.519531,280.677277 607.183472,285.368469 
	C606.791565,286.722412 606.399597,288.076355 605.675415,289.927521 
	C605.270874,290.749268 605.198608,291.073792 605.126343,291.398285 
	C601.350159,302.841858 597.574036,314.285431 593.797791,325.729004 
	C593.134216,327.739960 592.469788,329.750671 591.340210,333.171204 
	C595.789734,333.171204 599.442200,333.171204 603.672058,333.604034 
	C607.135376,334.667755 610.021301,335.298676 612.907227,335.929565 
	C612.859070,336.565918 612.810913,337.202271 612.762756,337.838593 
	C608.983276,338.154572 605.203796,338.470520 600.858154,338.833832 
	C602.089905,340.861023 603.095947,342.516785 604.013123,344.026276 
	C605.947693,342.771729 607.206055,341.955719 608.464417,341.139709 
	C608.974487,342.376831 609.484619,343.613953 609.994690,344.851044 
	C608.731812,345.221527 607.491760,345.738190 606.202454,345.939880 
	C593.414062,347.940765 584.836426,354.801636 581.018738,367.375610 
	C580.254883,369.891479 578.992188,372.255890 577.750854,374.950378 
M599.277405,283.008514 
	C599.513306,284.890198 599.749268,286.771912 599.985168,288.653595 
	C600.847168,288.369324 601.709229,288.085052 602.571228,287.800781 
	C601.643005,286.013031 600.714844,284.225281 599.277405,283.008514 
z"/>
<path fill="#44B1A2" opacity="1.000000" stroke="none" 
	d="
M679.851196,464.562225 
	C679.230469,465.948944 678.415283,467.024261 677.295410,468.501526 
	C679.145874,468.501526 680.743896,468.501526 683.118469,468.501526 
	C681.766113,469.722198 680.927490,470.479156 680.260010,471.081665 
	C681.584717,472.512024 682.770996,473.792999 683.968628,475.439392 
	C671.020081,474.980072 660.307373,469.296082 652.009705,459.652832 
	C635.050537,439.943542 628.904297,417.023651 633.582336,391.423218 
	C636.893738,373.301178 640.620483,355.255035 644.142761,337.171295 
	C644.345886,336.127991 644.376526,335.051086 644.568359,333.216003 
	C642.184875,334.760559 640.463745,335.875916 638.383118,336.644043 
	C637.951477,333.976624 638.105103,331.620087 637.739563,329.346985 
	C637.416809,327.339386 636.515076,325.424866 635.868958,323.469299 
	C644.666748,317.276550 653.464539,311.083832 662.514526,305.108978 
	C662.671814,306.117828 662.394470,306.937103 662.511963,307.695221 
	C663.207031,312.182526 666.051880,316.580261 662.265625,321.166779 
	C661.395386,322.220886 662.025879,324.514008 661.965820,326.236908 
	C663.320435,325.636627 664.655518,324.981293 666.047974,324.487671 
	C666.293640,324.400574 666.778870,324.989197 667.153442,325.265778 
	C660.464355,339.740662 653.006653,353.919342 647.284607,368.766876 
	C640.446655,386.509857 637.311340,405.107666 642.014099,424.067963 
	C646.349060,441.545532 656.496033,454.503906 673.347107,461.715546 
	C675.430420,462.607178 677.552612,463.407990 679.851196,464.562225 
z"/>
<path fill="#254169" opacity="1.000000" stroke="none" 
	d="
M316.622681,83.977936 
	C315.476959,84.632751 313.977722,85.133873 311.212860,86.058006 
	C317.859375,88.785599 314.908081,93.547699 314.994110,97.663010 
	C315.343506,114.378006 315.511841,131.098785 316.072418,147.806519 
	C316.346313,155.970627 317.437988,164.104813 317.908569,172.267014 
	C317.997498,173.809479 316.902985,175.420151 315.932831,177.124939 
	C310.131470,174.845139 304.751862,172.439758 299.002106,169.450836 
	C297.937103,168.619370 297.242218,168.371460 296.547333,168.123535 
	C296.082367,167.967697 295.617432,167.811844 295.047180,167.426392 
	C292.593811,157.249985 290.548981,147.380798 294.253296,137.187332 
	C295.337219,134.204636 294.938538,130.632904 294.972046,127.328636 
	C295.056458,118.999680 294.980774,110.669243 295.007599,102.339516 
	C295.022247,97.786224 294.793976,93.364807 289.303253,90.674736 
	C294.406891,88.387123 294.510498,85.872459 291.128052,82.481331 
	C288.983398,80.331184 291.190063,79.423798 293.454895,78.720741 
	C301.327576,80.356361 308.798370,82.090302 316.622681,83.977936 
z"/>
<path fill="#42BCA7" opacity="1.000000" stroke="none" 
	d="
M662.499634,160.307358 
	C661.351074,158.069321 660.117126,155.815887 659.887573,153.464371 
	C659.682434,151.363327 660.971497,149.147690 660.936096,146.993530 
	C660.738098,134.944397 659.956909,122.892159 660.159912,110.854218 
	C660.269775,104.340683 661.941467,97.853477 662.858276,90.933914 
	C663.484192,89.466652 664.160278,88.419868 665.216858,87.033600 
	C665.780396,86.512039 665.917175,86.300072 666.007751,86.058220 
	C672.437561,78.769485 678.867310,71.480736 685.609619,64.079384 
	C686.614746,65.677841 687.869202,67.374481 687.913574,69.102180 
	C688.386230,87.520012 688.778809,105.942192 688.872437,124.364807 
	C688.885559,126.937614 691.967285,130.011398 688.186829,132.294891 
	C688.987915,133.268478 689.789001,134.242065 690.768921,135.492706 
	C680.957825,141.763809 672.278748,149.248535 665.069580,158.425735 
	C664.492126,159.160828 663.598145,159.647263 662.499634,160.307358 
z"/>
<path fill="#327A86" opacity="1.000000" stroke="none" 
	d="
M490.476013,535.087097 
	C492.746307,538.402710 496.286743,541.820374 496.464630,545.404968 
	C497.408142,564.416077 497.447327,583.470642 497.929108,602.506836 
	C498.114990,609.851013 498.533081,617.194885 499.089294,624.520325 
	C499.229156,626.362427 500.309479,628.133118 500.977051,630.302002 
	C492.971893,630.853516 484.947296,631.039490 476.450684,630.705139 
	C475.652466,627.233765 475.073090,624.285156 475.044769,621.331238 
	C474.934875,609.851318 475.122101,598.367920 474.948273,586.889587 
	C474.861847,581.179077 471.356110,575.360229 475.767487,569.807129 
	C476.065430,569.432129 475.449432,567.718323 474.855713,567.414551 
	C474.220703,567.089722 473.019562,567.527771 472.225342,567.940430 
	C471.103577,568.523254 470.128571,569.388489 469.090820,570.132996 
	C468.942780,569.909241 468.794739,569.685425 468.646698,569.461609 
	C470.745056,565.583130 472.843384,561.704712 474.941742,557.826233 
	C480.026001,550.306213 485.110291,542.786194 490.476013,535.087097 
z"/>
<path fill="#2D617A" opacity="1.000000" stroke="none" 
	d="
M411.039429,231.358047 
	C415.246674,233.499237 414.876099,240.570404 411.145844,243.865723 
	C411.798157,251.106262 412.298157,257.786713 413.088776,264.432556 
	C413.238373,265.690094 414.542023,266.810333 415.726105,268.021179 
	C411.851959,281.804077 407.564941,295.559692 403.015350,310.157776 
	C408.545288,311.378265 413.964111,312.574219 419.404175,314.184937 
	C417.463074,314.914886 415.500702,315.230072 413.538361,315.545227 
	C413.546570,315.798828 413.554779,316.052460 413.562958,316.306061 
	C415.578125,316.969543 417.593262,317.632996 420.319702,318.530670 
	C415.346344,322.735229 420.411804,322.668365 420.874023,324.298492 
	C421.307709,328.725922 421.741394,333.153320 422.178711,337.617676 
	C421.488800,338.320740 420.244415,339.588837 419.000000,340.856964 
	C416.356293,340.651215 413.635712,340.773407 411.084045,340.175079 
	C404.736359,338.686798 400.450317,340.972565 397.074402,346.854736 
	C394.896698,345.253113 393.437439,343.430695 391.839783,341.739014 
	C389.456940,339.215973 388.412933,337.197449 391.219360,333.768829 
	C394.049072,330.311768 391.835754,320.894348 389.629578,319.596375 
	C390.481750,316.095215 391.330872,312.992218 391.975494,309.847321 
	C392.591766,306.840729 393.204132,303.803345 393.390625,300.753326 
	C393.466522,299.511902 392.414307,298.201538 391.875366,296.922516 
	C391.430298,297.133026 390.985260,297.343506 390.540192,297.554016 
	C390.111786,299.343597 389.683350,301.133179 389.254913,302.922791 
	C388.824921,302.984131 388.394928,303.045471 387.964905,303.106842 
	C387.269409,301.603180 386.573883,300.099548 385.878387,298.595917 
	C392.379059,281.190430 398.874512,263.782990 405.383698,246.380692 
	C407.215454,241.483643 409.087433,236.601639 411.039429,231.358047 
z"/>
<path fill="#254169" opacity="1.000000" stroke="none" 
	d="
M301.293396,562.740479 
	C295.919128,551.548706 298.306610,539.367432 297.022949,527.602356 
	C296.898743,526.463684 296.667480,525.023743 297.202240,524.174866 
	C302.225403,516.200806 299.263794,507.394318 299.946075,498.988373 
	C300.208954,495.749268 301.100006,491.632812 295.166199,492.853302 
	C295.626709,490.488800 295.944305,488.858063 295.976471,487.034729 
	C295.730957,486.518738 295.876099,486.252838 296.541595,485.951660 
	C297.079315,485.817993 297.307495,485.775848 297.307098,485.736115 
	C297.304626,485.503113 297.248749,485.270660 297.210876,485.038025 
	C303.881744,476.023621 310.552612,467.009247 317.681244,458.159058 
	C321.235809,462.671631 325.866882,466.599182 321.362244,472.775757 
	C320.622406,473.790192 320.938629,475.694214 321.024323,477.172180 
	C321.645782,487.893616 322.209229,498.621033 323.054443,509.325745 
	C323.453461,514.379333 324.432678,519.387085 325.149017,524.415588 
	C325.149017,524.415588 325.161041,524.778259 324.649780,524.886902 
	C322.912079,525.136536 321.685669,525.277527 320.172058,525.451538 
	C321.515015,526.716919 322.296844,527.453613 323.078644,528.190247 
	C315.915771,539.659058 308.752930,551.127869 301.293396,562.740479 
z"/>
<path fill="#2A5B77" opacity="1.000000" stroke="none" 
	d="
M385.615234,298.848022 
	C386.573883,300.099548 387.269409,301.603180 387.964905,303.106842 
	C388.394928,303.045471 388.824921,302.984131 389.254913,302.922791 
	C389.683350,301.133179 390.111786,299.343597 390.540192,297.554016 
	C390.985260,297.343506 391.430298,297.133026 391.875366,296.922516 
	C392.414307,298.201538 393.466522,299.511902 393.390625,300.753326 
	C393.204132,303.803345 392.591766,306.840729 391.975494,309.847321 
	C391.330872,312.992218 390.481750,316.095215 389.629578,319.596375 
	C391.835754,320.894348 394.049072,330.311768 391.219360,333.768829 
	C388.412933,337.197449 389.456940,339.215973 391.839783,341.739014 
	C393.437439,343.430695 394.896698,345.253113 396.796387,347.039185 
	C396.436768,348.559784 395.698639,350.058289 394.587280,351.386292 
	C393.598328,350.569000 392.982605,349.922180 392.366882,349.275360 
	C391.188293,351.185333 390.009674,353.095276 388.296356,355.871765 
	C390.795776,355.406525 391.888702,355.203125 392.981628,354.999695 
	C384.987976,376.535706 376.994324,398.071747 368.410919,419.815460 
	C367.421509,418.364136 366.717957,416.705475 366.716278,415.046112 
	C366.714874,413.667145 367.899811,412.298157 367.941437,410.906219 
	C368.367096,396.667206 368.782654,382.425385 368.907837,368.181793 
	C368.934448,365.153503 366.936676,361.995514 367.347687,359.107361 
	C368.060272,354.100128 369.830292,349.227295 371.347076,344.357361 
	C372.128296,341.849060 372.584259,339.753693 369.235443,339.005280 
	C369.235443,339.005280 368.942291,338.698364 368.903137,338.111877 
	C366.714905,334.545197 365.007019,331.612122 366.596161,327.604034 
	C367.262939,325.922302 366.707123,323.755798 366.707123,321.221252 
	C367.487671,320.662323 369.240417,319.407288 370.993164,318.152222 
	C377.433380,315.931976 379.482910,309.951050 382.430450,304.754517 
	C383.476379,302.910583 384.382294,300.987244 385.615234,298.848022 
M388.451263,346.712402 
	C388.714661,346.988831 388.978058,347.265259 389.241455,347.541656 
	C389.355927,347.432526 389.470398,347.323395 389.584839,347.214233 
	C389.321106,346.937775 389.057373,346.661316 388.451263,346.712402 
z"/>
<path fill="#26486D" opacity="1.000000" stroke="none" 
	d="
M325.436188,524.201904 
	C324.432678,519.387085 323.453461,514.379333 323.054443,509.325745 
	C322.209229,498.621033 321.645782,487.893616 321.024323,477.172180 
	C320.938629,475.694214 320.622406,473.790192 321.362244,472.775757 
	C325.866882,466.599182 321.235809,462.671631 317.982330,457.985962 
	C326.463165,441.624817 335.100677,425.600983 344.290405,409.367004 
	C344.663025,410.685303 344.636444,412.251373 344.271362,413.734100 
	C343.554321,416.646362 342.648956,419.512299 341.821503,422.397400 
	C342.373657,422.620972 342.925842,422.844543 343.478027,423.068115 
	C344.711914,421.773407 345.945831,420.478729 347.179749,419.184021 
	C347.581940,419.300232 347.984131,419.416412 348.386322,419.532623 
	C348.208923,420.838776 348.208954,422.204132 347.798889,423.432617 
	C347.461060,424.444702 346.087433,425.309631 346.112183,426.213989 
	C346.425964,437.660645 346.910034,449.102631 347.381531,461.347717 
	C342.975342,462.306580 342.343811,466.142914 343.875671,471.173981 
	C344.258453,472.431091 343.796204,474.202454 343.168396,475.461151 
	C341.423309,478.959930 341.557953,482.122375 344.078613,485.142395 
	C337.960175,498.090973 331.841766,511.039551 325.436188,524.201904 
z"/>
<path fill="#275072" opacity="1.000000" stroke="none" 
	d="
M344.339874,484.897217 
	C341.557953,482.122375 341.423309,478.959930 343.168396,475.461151 
	C343.796204,474.202454 344.258453,472.431091 343.875671,471.173981 
	C342.343811,466.142914 342.975342,462.306580 347.381531,461.347717 
	C346.910034,449.102631 346.425964,437.660645 346.112183,426.213989 
	C346.087433,425.309631 347.461060,424.444702 347.798889,423.432617 
	C348.208954,422.204132 348.208923,420.838776 348.386322,419.532623 
	C347.984131,419.416412 347.581940,419.300232 347.179749,419.184021 
	C345.945831,420.478729 344.711914,421.773407 343.478027,423.068115 
	C342.925842,422.844543 342.373657,422.620972 341.821503,422.397400 
	C342.648956,419.512299 343.554321,416.646362 344.271362,413.734100 
	C344.636444,412.251373 344.663025,410.685303 344.513184,409.079224 
	C352.373383,387.970459 360.603516,366.954926 368.682281,345.881378 
	C369.393768,344.025482 369.115387,341.790070 369.266113,339.368103 
	C372.584259,339.753693 372.128296,341.849060 371.347076,344.357361 
	C369.830292,349.227295 368.060272,354.100128 367.347687,359.107361 
	C366.936676,361.995514 368.934448,365.153503 368.907837,368.181793 
	C368.782654,382.425385 368.367096,396.667206 367.941437,410.906219 
	C367.899811,412.298157 366.714874,413.667145 366.716278,415.046112 
	C366.717957,416.705475 367.421509,418.364136 368.235962,420.103943 
	C362.346802,437.047913 356.039886,453.909943 349.741058,470.774963 
	C348.015228,475.395966 346.313751,480.026062 344.339874,484.897217 
z"/>
<path fill="#317282" opacity="1.000000" stroke="none" 
	d="
M474.653168,558.005249 
	C472.843384,561.704712 470.745056,565.583130 468.646698,569.461609 
	C468.794739,569.685425 468.942780,569.909241 469.090820,570.132996 
	C470.128571,569.388489 471.103577,568.523254 472.225342,567.940430 
	C473.019562,567.527771 474.220703,567.089722 474.855713,567.414551 
	C475.449432,567.718323 476.065430,569.432129 475.767487,569.807129 
	C471.356110,575.360229 474.861847,581.179077 474.948273,586.889587 
	C475.122101,598.367920 474.934875,609.851318 475.044769,621.331238 
	C475.073090,624.285156 475.652466,627.233765 475.989868,630.610229 
	C465.638397,631.309021 455.275726,631.582458 444.452515,631.325439 
	C445.067963,620.479309 445.468842,610.024963 447.545624,599.914917 
	C448.400330,595.754211 447.216675,593.243896 445.664062,590.191772 
	C455.230896,579.522583 464.797729,568.853455 474.653168,558.005249 
z"/>
<path fill="#3EA79D" opacity="1.000000" stroke="none" 
	d="
M607.426636,285.086914 
	C602.519531,280.677277 603.986145,274.684875 603.843872,269.090424 
	C603.673889,262.402649 603.803772,255.707306 603.803772,248.526031 
	C603.385376,248.560989 604.422913,248.474289 604.360596,248.479492 
	C605.589661,243.357056 606.953430,238.670670 607.773071,233.890976 
	C608.283081,230.916672 608.575745,227.564041 604.386536,226.007355 
	C608.773254,211.525864 613.409241,197.011948 618.372192,182.610703 
	C621.168823,174.495728 624.504333,166.566498 627.837280,158.292267 
	C627.088440,162.136887 626.100952,166.243240 625.109070,170.348511 
	C624.809937,171.586365 624.127808,172.860229 624.252991,174.051224 
	C625.077942,181.903564 626.055908,189.740219 627.042175,197.574661 
	C627.161194,198.520294 627.376465,199.660370 627.981018,200.300659 
	C630.032227,202.473099 630.376526,203.915451 627.861145,206.422165 
	C624.468628,209.802933 625.680176,213.416672 630.884277,217.031036 
	C623.394653,239.659470 615.532227,262.232422 607.426636,285.086914 
z"/>
<path fill="#327A86" opacity="1.000000" stroke="none" 
	d="
M461.568298,128.328247 
	C460.552338,120.131279 459.759033,111.661102 459.046906,103.184120 
	C458.611206,97.997482 458.242065,92.803665 457.947937,87.607140 
	C457.592590,81.328598 457.360718,75.043152 457.049530,68.761978 
	C456.930084,66.349998 456.739288,63.941559 456.317566,61.283138 
	C466.841095,55.136089 477.627991,49.237411 489.607727,42.686428 
	C480.138214,71.782898 470.981689,99.917549 461.568298,128.328247 
z"/>
<path fill="#2E667C" opacity="1.000000" stroke="none" 
	d="
M445.329956,590.321106 
	C447.216675,593.243896 448.400330,595.754211 447.545624,599.914917 
	C445.468842,610.024963 445.067963,620.479309 443.994873,631.223633 
	C423.533905,631.652344 403.070007,631.652344 383.501801,631.652344 
	C405.311584,621.513000 426.400757,607.817993 445.329956,590.321106 
M440.097595,600.616882 
	C438.717468,603.979614 441.001801,605.212036 443.045197,606.584473 
	C443.479553,606.329102 443.913940,606.073669 444.348297,605.818298 
	C443.136444,603.993713 441.924561,602.169189 440.097595,600.616882 
z"/>
<path fill="#3A9393" opacity="1.000000" stroke="none" 
	d="
M546.460022,629.973816 
	C545.384033,628.307129 544.769348,626.730408 544.142578,625.122620 
	C544.230591,624.068298 544.386841,622.725647 544.443054,621.378906 
	C544.503052,619.938354 544.430786,618.492554 544.481567,617.051392 
	C544.791138,608.263733 546.453430,599.497131 542.980835,590.793213 
	C541.581726,587.286377 539.320801,583.090271 543.076294,578.869385 
	C548.702209,590.168213 554.858215,601.559509 565.196655,609.519348 
	C574.033264,616.322937 583.831970,621.877014 593.199402,628.350342 
	C589.502686,628.965576 585.811646,629.214233 582.120605,629.462952 
	C581.638367,629.525574 581.156067,629.588196 580.213501,629.476440 
	C579.454529,629.192627 579.214905,629.273621 579.034363,629.545227 
	C568.330017,629.718079 557.625671,629.890930 546.460022,629.973816 
z"/>
<path fill="#33818A" opacity="1.000000" stroke="none" 
	d="
M487.000488,322.265930 
	C499.436615,323.572662 511.872803,324.879395 524.979248,326.502136 
	C526.447510,326.873535 527.245544,326.928986 528.043518,326.984436 
	C528.043518,326.984406 528.533875,326.890045 528.671875,327.356018 
	C526.521362,327.935852 524.233887,328.081024 521.944031,328.154877 
	C519.549133,328.232117 516.416565,326.960388 516.292725,331.528351 
	C518.779480,331.882538 521.106262,332.213928 524.346741,332.675446 
	C521.149109,333.959076 517.613281,334.510864 517.437866,335.602631 
	C516.764038,339.795746 516.816284,344.212433 517.421753,348.427338 
	C517.568726,349.451080 520.868286,350.004333 522.695557,350.824615 
	C522.953247,350.940338 523.080627,351.346161 523.268372,351.617737 
	C522.841675,351.591461 522.414978,351.565186 521.327271,351.289978 
	C520.125671,351.022064 519.584961,351.003052 519.044312,350.984070 
	C507.229919,349.886505 495.415497,348.788940 483.278320,347.077759 
	C482.948151,345.969635 483.146484,345.312012 482.902863,345.004852 
	C478.573151,339.545258 483.810791,333.698181 482.276886,328.081146 
	C482.087158,327.386444 483.832397,326.178375 484.656219,325.187531 
	C485.454315,324.227539 486.220367,323.240906 487.000488,322.265930 
z"/>
<path fill="#317282" opacity="1.000000" stroke="none" 
	d="
M486.591980,322.165039 
	C486.220367,323.240906 485.454315,324.227539 484.656219,325.187531 
	C483.832397,326.178375 482.087158,327.386444 482.276886,328.081146 
	C483.810791,333.698181 478.573151,339.545258 482.902863,345.004852 
	C483.146484,345.312012 482.948151,345.969635 482.932800,346.882996 
	C480.156342,347.114258 477.402649,346.926666 473.953339,346.431763 
	C472.455627,346.111481 471.653534,346.098541 470.851410,346.085571 
	C464.158112,345.453827 457.464844,344.822083 450.148407,343.778625 
	C449.119598,341.736298 448.499664,340.125244 448.349152,338.471436 
	C447.926758,333.830750 447.554352,329.174408 447.489471,324.519714 
	C447.472351,323.289551 448.355255,321.325928 449.317657,320.945404 
	C451.703430,320.002014 454.373871,319.778595 456.929962,319.265991 
	C462.246979,320.084076 467.542450,321.116699 472.887726,321.653442 
	C477.289001,322.095428 481.749329,321.949493 486.591980,322.165039 
z"/>
<path fill="#2F6E80" opacity="1.000000" stroke="none" 
	d="
M456.555359,319.158386 
	C454.373871,319.778595 451.703430,320.002014 449.317657,320.945404 
	C448.355255,321.325928 447.472351,323.289551 447.489471,324.519714 
	C447.554352,329.174408 447.926758,333.830750 448.349152,338.471436 
	C448.499664,340.125244 449.119598,341.736298 449.755005,343.654785 
	C439.924469,342.990204 429.864258,342.037750 419.402039,340.971130 
	C420.244415,339.588837 421.488800,338.320740 422.178711,337.617676 
	C421.741394,333.153320 421.307709,328.725922 420.874023,324.298492 
	C420.411804,322.668365 415.346344,322.735229 420.319702,318.530670 
	C417.593262,317.632996 415.578125,316.969543 413.562958,316.306061 
	C413.554779,316.052460 413.546570,315.798828 413.538361,315.545227 
	C415.500702,315.230072 417.463074,314.914886 419.702393,314.339569 
	C428.575867,315.620605 437.151337,317.297821 445.779419,318.635315 
	C449.186127,319.163452 452.710175,318.934814 456.555359,319.158386 
z"/>
<path fill="#1F2D60" opacity="1.000000" stroke="none" 
	d="
M247.786774,416.937531 
	C244.270554,422.486511 240.597061,427.942993 237.268478,433.602325 
	C228.311707,448.830902 221.489685,464.967834 217.151260,482.123901 
	C216.837250,483.365662 216.435043,484.585114 216.073837,485.814911 
	C215.536179,485.918457 214.998505,486.021973 214.460846,486.125519 
	C213.516205,483.028717 211.783783,479.936310 211.766617,476.834381 
	C211.700882,464.950989 215.418976,453.812866 220.658417,443.386383 
	C226.705368,431.352905 233.689377,419.790314 240.627686,408.231812 
	C241.149292,411.807190 241.309677,415.174011 241.452179,418.165161 
	C243.816193,417.707031 245.801483,417.322266 247.786774,416.937531 
z"/>
<path fill="#254169" opacity="1.000000" stroke="none" 
	d="
M274.328400,363.019745 
	C283.487335,351.033539 296.289215,343.986603 309.597382,337.528442 
	C309.252502,339.227631 308.611938,340.623627 307.815186,342.360138 
	C310.931244,342.900269 313.422058,343.332031 316.839203,343.924347 
	C308.876068,348.919708 308.876068,348.919708 308.533264,352.001495 
	C312.218353,350.990326 315.709076,350.032501 319.199829,349.074677 
	C303.934723,357.836151 290.192474,368.566284 277.304749,380.901886 
	C275.573914,380.007599 274.366516,379.289246 273.030579,378.494385 
	C274.421448,374.808685 276.005493,371.528961 276.823212,368.068237 
	C277.251007,366.257721 278.299011,363.112976 274.328400,363.019745 
z"/>
<path fill="#213263" opacity="1.000000" stroke="none" 
	d="
M274.032562,363.206879 
	C278.299011,363.112976 277.251007,366.257721 276.823212,368.068237 
	C276.005493,371.528961 274.421448,374.808685 273.030579,378.494385 
	C274.366516,379.289246 275.573914,380.007599 276.987732,381.025085 
	C267.575195,393.064148 257.956299,404.804108 248.062088,416.740784 
	C245.801483,417.322266 243.816193,417.707031 241.452179,418.165161 
	C241.309677,415.174011 241.149292,411.807190 240.917267,408.036591 
	C249.659866,395.353546 258.431366,383.043182 267.322235,370.819672 
	C269.239471,368.183777 271.587250,365.860992 274.032562,363.206879 
z"/>
<path fill="#36898E" opacity="1.000000" stroke="none" 
	d="
M523.601318,351.743225 
	C523.080627,351.346161 522.953247,350.940338 522.695557,350.824615 
	C520.868286,350.004333 517.568726,349.451080 517.421753,348.427338 
	C516.816284,344.212433 516.764038,339.795746 517.437866,335.602631 
	C517.613281,334.510864 521.149109,333.959076 524.346741,332.675446 
	C521.106262,332.213928 518.779480,331.882538 516.292725,331.528351 
	C516.416565,326.960388 519.549133,328.232117 521.944031,328.154877 
	C524.233887,328.081024 526.521362,327.935852 528.901978,327.452881 
	C535.398743,328.033691 541.803467,328.983582 548.579041,330.087677 
	C544.234680,334.681366 544.178528,340.524261 545.446289,345.973755 
	C546.100708,348.786835 549.429810,350.977722 551.595154,353.501831 
	C551.548218,353.513611 550.579102,353.756714 549.236572,354.029388 
	C540.553467,353.328888 532.243896,352.598816 523.601318,351.743225 
z"/>
<path fill="#26486D" opacity="1.000000" stroke="none" 
	d="
M319.554962,349.036255 
	C315.709076,350.032501 312.218353,350.990326 308.533264,352.001495 
	C308.876068,348.919708 308.876068,348.919708 316.839203,343.924347 
	C313.422058,343.332031 310.931244,342.900269 307.815186,342.360138 
	C308.611938,340.623627 309.252502,339.227631 309.945770,337.473724 
	C309.998505,337.115845 310.161194,336.836060 310.756775,336.882690 
	C312.458649,336.146545 313.564972,335.363708 314.671295,334.580902 
	C314.671295,334.580902 314.858795,334.661469 315.147064,334.755005 
	C316.932587,333.855499 318.429840,332.862457 319.927094,331.869415 
	C319.927094,331.869415 319.951843,331.961548 320.281372,331.955261 
	C322.072449,331.013794 323.533966,330.078552 324.995483,329.143311 
	C324.995483,329.143311 325.246002,328.866241 325.705322,328.829468 
	C326.450958,328.567871 326.737274,328.343109 327.023560,328.118317 
	C332.080414,325.964813 337.137299,323.811310 342.594238,322.125610 
	C342.360718,327.551270 341.727142,332.509125 341.102875,337.393829 
	C344.189484,337.946472 346.572693,338.373199 348.955933,338.799896 
	C339.273987,342.199219 329.592041,345.598541 319.554962,349.036255 
z"/>
<path fill="#45C3AB" opacity="1.000000" stroke="none" 
	d="
M733.369934,196.824371 
	C734.006042,201.565170 733.844849,206.601486 738.776001,210.024963 
	C730.750854,219.298996 722.241272,228.378372 714.039734,237.727951 
	C710.119751,242.196533 705.652039,243.952072 699.516235,242.443649 
	C710.735474,227.227539 721.900085,212.085556 733.369934,196.824371 
z"/>
<path fill="#42BCA7" opacity="1.000000" stroke="none" 
	d="
M667.380798,325.126099 
	C666.778870,324.989197 666.293640,324.400574 666.047974,324.487671 
	C664.655518,324.981293 663.320435,325.636627 661.965820,326.236908 
	C662.025879,324.514008 661.395386,322.220886 662.265625,321.166779 
	C666.051880,316.580261 663.207031,312.182526 662.511963,307.695221 
	C662.394470,306.937103 662.671814,306.117828 662.837646,304.973999 
	C672.369385,295.846863 681.830261,287.072540 691.722107,277.898438 
	C693.318359,278.884399 694.644104,280.924469 692.519409,284.341187 
	C684.814209,296.731659 677.210083,309.185059 669.043213,321.988892 
	C668.377197,322.745209 668.235718,323.127350 668.094238,323.509491 
	C667.932190,324.001801 667.770142,324.494110 667.380798,325.126099 
z"/>
<path fill="#275072" opacity="1.000000" stroke="none" 
	d="
M349.381470,338.839630 
	C346.572693,338.373199 344.189484,337.946472 341.102875,337.393829 
	C341.727142,332.509125 342.360718,327.551270 343.008118,322.153137 
	C349.684387,321.066223 356.356201,320.500275 363.004425,319.730530 
	C365.427460,319.450012 367.794281,318.684265 370.589966,318.146057 
	C369.240417,319.407288 367.487671,320.662323 366.707123,321.221252 
	C366.707123,323.755798 367.262939,325.922302 366.596161,327.604034 
	C365.007019,331.612122 366.714905,334.545197 368.887238,337.900238 
	C362.542664,338.476532 356.174866,338.677948 349.381470,338.839630 
z"/>
<path fill="#3EA79D" opacity="1.000000" stroke="none" 
	d="
M635.504883,323.586243 
	C636.515076,325.424866 637.416809,327.339386 637.739563,329.346985 
	C638.105103,331.620087 637.951477,333.976624 638.025208,336.696014 
	C631.349915,339.219849 624.673035,341.344543 617.499268,343.090271 
	C616.454895,342.219574 615.907410,341.727814 615.359985,341.236084 
	C614.906677,342.157318 614.453369,343.078552 614.000000,343.999756 
	C612.894287,344.313660 611.788513,344.627594 610.338745,344.896301 
	C609.484619,343.613953 608.974487,342.376831 608.464417,341.139709 
	C607.206055,341.955719 605.947693,342.771729 604.013123,344.026276 
	C603.095947,342.516785 602.089905,340.861023 600.858154,338.833832 
	C605.203796,338.470520 608.983276,338.154572 612.762756,337.838593 
	C612.810913,337.202271 612.859070,336.565918 612.907227,335.929565 
	C610.021301,335.298676 607.135376,334.667755 604.126282,333.682068 
	C615.001770,332.123291 625.289307,328.618561 635.504883,323.586243 
z"/>
<path fill="#44B1A2" opacity="1.000000" stroke="none" 
	d="
M741.978271,804.010681 
	C741.892761,802.729980 741.742981,801.449524 741.736816,800.168457 
	C741.727478,798.242065 741.818726,796.315186 741.867310,794.388550 
	C740.610962,794.360229 739.354675,794.331970 738.098389,794.303650 
	C738.141113,796.369019 738.190491,798.434326 738.219421,800.499939 
	C738.223572,800.795288 738.129333,801.091980 736.968079,801.735291 
	C736.483948,799.796265 735.363220,797.760437 735.640320,795.937012 
	C736.348083,791.279114 741.665771,790.828979 744.199402,795.174377 
	C745.218323,796.921875 745.774231,798.939331 746.233215,800.073608 
	C744.730408,801.114868 743.182190,802.187622 741.800903,803.640259 
	C741.967896,804.020203 741.978271,804.010681 741.978271,804.010681 
z"/>
<path fill="#327A86" opacity="1.000000" stroke="none" 
	d="
M456.278564,144.807587 
	C455.371613,139.982819 454.706543,134.892731 453.998688,129.475067 
	C455.926300,130.300995 457.268341,130.876007 458.814026,131.211853 
	C459.124359,132.554977 459.597168,134.220428 459.260681,135.702087 
	C458.579468,138.701538 457.459534,141.601364 456.278564,144.807587 
z"/>
<path fill="#3A9393" opacity="1.000000" stroke="none" 
	d="
M538.026245,429.291016 
	C539.424683,427.867249 540.715332,426.740814 542.250671,425.400787 
	C543.111328,428.341919 543.967834,431.268799 545.062561,435.009583 
	C542.336609,433.432220 540.348938,432.282013 538.014343,430.979614 
	C537.751160,430.414337 537.834839,430.001312 538.026245,429.291016 
z"/>
<path fill="#3EA79D" opacity="1.000000" stroke="none" 
	d="
M632.064087,215.673401 
	C631.089050,214.019699 629.802429,212.074432 629.828186,210.146667 
	C629.837769,209.430984 632.924133,208.756348 635.031006,208.096985 
	C634.394226,210.550232 633.333862,212.969498 632.064087,215.673401 
z"/>
<path fill="#45C3AB" opacity="1.000000" stroke="none" 
	d="
M737.507324,188.263123 
	C738.709656,188.351486 739.703674,188.697815 740.697754,189.044144 
	C740.232788,189.973587 739.927612,191.040222 739.270813,191.804871 
	C737.756104,193.568420 736.070679,195.185379 734.050293,196.761658 
	C734.863770,193.948013 736.081421,191.234543 737.507324,188.263123 
z"/>
<path fill="#3EA79D" opacity="1.000000" stroke="none" 
	d="
M602.413574,230.287567 
	C603.718506,230.980759 604.839722,231.942719 605.960938,232.904694 
	C604.542175,233.702972 603.123413,234.501236 601.392273,235.158722 
	C601.463196,233.530731 601.846497,232.043518 602.413574,230.287567 
z"/>
<path fill="#2D617A" opacity="1.000000" stroke="none" 
	d="
M393.208038,354.822998 
	C391.888702,355.203125 390.795776,355.406525 388.296356,355.871765 
	C390.009674,353.095276 391.188293,351.185333 392.366882,349.275360 
	C392.982605,349.922180 393.598328,350.569000 394.319977,351.633484 
	C394.095398,352.916168 393.764923,353.781219 393.208038,354.822998 
z"/>
<path fill="#3EA79D" opacity="1.000000" stroke="none" 
	d="
M600.350098,237.075211 
	C601.145203,239.595367 601.743408,242.370667 602.341553,245.145966 
	C601.773071,245.257401 601.204590,245.368820 600.636108,245.480240 
	C600.302246,244.178268 599.968445,242.876282 599.396423,241.312164 
	C599.489929,239.810150 599.821594,238.570251 600.350098,237.075211 
z"/>
<path fill="#44B1A2" opacity="1.000000" stroke="none" 
	d="
M582.561279,629.587524 
	C585.811646,629.214233 589.502686,628.965576 593.523193,628.513306 
	C594.893127,628.528931 595.933594,628.748108 596.974121,628.967346 
	C596.981812,629.215576 596.989563,629.463867 596.997314,629.712097 
	C592.332153,629.712097 587.667053,629.712097 582.561279,629.587524 
z"/>
<path fill="#3A9393" opacity="1.000000" stroke="none" 
	d="
M512.581421,630.655273 
	C514.149353,630.340576 516.160217,630.139648 518.569885,629.903564 
	C522.405090,629.918152 525.841492,629.967896 529.755859,630.057007 
	C524.497253,630.320557 518.760864,630.544800 512.581421,630.655273 
z"/>
<path fill="#3A9393" opacity="1.000000" stroke="none" 
	d="
M543.119507,577.640137 
	C541.989197,577.893982 540.676880,578.123047 539.789368,577.613037 
	C539.025330,577.173950 538.745667,575.891968 538.251831,574.982666 
	C539.241577,574.880981 540.231323,574.779297 541.524536,574.838501 
	C542.259277,575.764343 542.690552,576.529419 543.119507,577.640137 
z"/>
<path fill="#254169" opacity="1.000000" stroke="none" 
	d="
M319.584595,331.909149 
	C318.429840,332.862457 316.932587,333.855499 315.045227,334.748901 
	C316.184082,333.749084 317.713074,332.848969 319.584595,331.909149 
z"/>
<path fill="#45C3AB" opacity="1.000000" stroke="none" 
	d="
M741.013916,208.247162 
	C740.560547,207.230026 740.347961,206.089981 740.135315,204.949951 
	C740.871460,205.143265 741.607544,205.336594 742.578857,205.714371 
	C742.294250,206.640625 741.774475,207.382431 741.013916,208.247162 
z"/>
<path fill="#26486D" opacity="1.000000" stroke="none" 
	d="
M323.339294,528.009949 
	C322.296844,527.453613 321.515015,526.716919 320.172058,525.451538 
	C321.685669,525.277527 322.912079,525.136536 324.505737,524.997192 
	C324.448608,525.942444 324.024261,526.886047 323.339294,528.009949 
z"/>
<path fill="#44B1A2" opacity="1.000000" stroke="none" 
	d="
M689.508362,465.219940 
	C687.757263,465.423035 685.651306,465.506927 683.285339,465.331848 
	C685.068054,465.082153 687.110779,465.091431 689.508362,465.219940 
z"/>
<path fill="#44B1A2" opacity="1.000000" stroke="none" 
	d="
M700.573792,464.358093 
	C698.868469,464.816162 696.786072,465.268982 694.415527,465.513611 
	C696.150513,464.987915 698.173645,464.670380 700.573792,464.358093 
z"/>
<path fill="#3C9D98" opacity="1.000000" stroke="none" 
	d="
M614.325562,344.046661 
	C614.453369,343.078552 614.906677,342.157318 615.359985,341.236084 
	C615.907410,341.727814 616.454895,342.219574 617.070557,343.092468 
	C616.309509,343.680298 615.480225,343.886902 614.325562,344.046661 
z"/>
<path fill="#254169" opacity="1.000000" stroke="none" 
	d="
M324.664459,329.171875 
	C323.533966,330.078552 322.072449,331.013794 320.240295,331.931091 
	C321.357574,331.008942 322.845520,330.104706 324.664459,329.171875 
z"/>
<path fill="#1F2D60" opacity="1.000000" stroke="none" 
	d="
M133.347336,538.421387 
	C132.431549,538.310730 131.270187,542.982056 130.007156,538.373169 
	C131.015900,538.071655 132.032303,538.116516 133.347336,538.421387 
z"/>
<path fill="#254169" opacity="1.000000" stroke="none" 
	d="
M314.336090,334.646545 
	C313.564972,335.363708 312.458649,336.146545 310.917358,336.902466 
	C311.655243,336.154449 312.828064,335.433319 314.336090,334.646545 
z"/>
<path fill="#1D225A" opacity="1.000000" stroke="none" 
	d="
M124.842667,534.777405 
	C124.446396,535.501343 123.890923,535.998413 123.335434,536.495422 
	C123.119110,535.749207 122.902786,535.002930 122.941193,534.078979 
	C123.691780,534.117737 124.187622,534.334106 124.842667,534.777405 
z"/>
<path fill="#3EA79D" opacity="1.000000" stroke="none" 
	d="
M629.510498,154.035156 
	C630.110840,154.525223 630.466675,155.184814 630.822510,155.844391 
	C630.328430,156.030273 629.834351,156.216156 629.148682,156.165924 
	C629.059937,155.354752 629.162903,154.779724 629.510498,154.035156 
z"/>
<path fill="#3A9393" opacity="1.000000" stroke="none" 
	d="
M534.164795,630.196106 
	C534.559082,629.898315 535.131348,629.734985 535.852661,629.798218 
	C535.448730,630.126770 534.895691,630.228699 534.164795,630.196106 
z"/>
<path fill="#33818A" opacity="1.000000" stroke="none" 
	d="
M471.107391,346.261719 
	C471.653534,346.098541 472.455627,346.111481 473.519073,346.264771 
	C472.974731,346.416046 472.169037,346.426971 471.107391,346.261719 
z"/>
<path fill="#3EA79D" opacity="1.000000" stroke="none" 
	d="
M636.172363,206.612686 
	C636.174133,206.008179 636.397034,205.181610 636.906738,204.193634 
	C636.926819,204.818359 636.660156,205.604492 636.172363,206.612686 
z"/>
<path fill="#1F2D60" opacity="1.000000" stroke="none" 
	d="
M232.678650,532.015015 
	C232.268433,532.379028 231.548126,532.714600 230.511017,533.054810 
	C230.918976,532.701721 231.643768,532.344116 232.678650,532.015015 
z"/>
<path fill="#36898E" opacity="1.000000" stroke="none" 
	d="
M527.792175,326.810913 
	C527.245544,326.928986 526.447510,326.873535 525.399841,326.654327 
	C525.947021,326.539490 526.743958,326.588440 527.792175,326.810913 
z"/>
<path fill="#44B1A2" opacity="1.000000" stroke="none" 
	d="
M741.955566,804.022339 
	C742.101196,804.150085 742.259155,804.275696 742.417114,804.401306 
	C742.360291,804.252258 742.303528,804.103210 742.112549,803.982422 
	C741.978271,804.010681 741.967896,804.020203 741.955566,804.022339 
z"/>
<path fill="#327A86" opacity="1.000000" stroke="none" 
	d="
M455.264496,147.910126 
	C455.166382,147.544464 455.287079,146.980713 455.628937,146.222870 
	C455.727844,146.589859 455.605591,147.150940 455.264496,147.910126 
z"/>
<path fill="#233865" opacity="1.000000" stroke="none" 
	d="
M296.765320,168.404602 
	C297.242218,168.371460 297.937103,168.619370 298.766144,169.229889 
	C298.261322,169.290207 297.622314,168.987930 296.765320,168.404602 
z"/>
<path fill="#1A1955" opacity="1.000000" stroke="none" 
	d="
M207.462372,632.498474 
	C207.619293,632.189514 208.102478,631.835266 208.780457,631.686890 
	C208.579712,632.079651 208.184174,632.266479 207.462372,632.498474 
z"/>
<path fill="#36898E" opacity="1.000000" stroke="none" 
	d="
M519.252563,351.139465 
	C519.584961,351.003052 520.125671,351.022064 521.075684,351.084473 
	C520.810364,351.183563 520.135620,351.239227 519.252563,351.139465 
z"/>
<path fill="#254169" opacity="1.000000" stroke="none" 
	d="
M326.734985,328.125153 
	C326.737274,328.343109 326.450958,328.567871 325.891541,328.843811 
	C325.894409,328.640625 326.170410,328.386322 326.734985,328.125153 
z"/>
<path fill="#40B1A2" opacity="1.000000" stroke="none" 
	d="
M665.819397,86.135193 
	C665.917175,86.300072 665.780396,86.512039 665.444580,86.805405 
	C665.275269,86.619438 665.388306,86.384598 665.819397,86.135193 
z"/>
<path fill="#1D225A" opacity="1.000000" stroke="none" 
	d="
M201.262360,634.100159 
	C201.258331,633.876587 201.516937,633.731262 201.880524,633.733521 
	C201.832001,633.980286 201.678497,634.079285 201.262360,634.100159 
z"/>
<path fill="#44B1A2" opacity="1.000000" stroke="none" 
	d="
M579.268372,629.608459 
	C579.214905,629.273621 579.454529,629.192627 579.854248,629.400391 
	C579.955261,629.498596 579.502380,629.671692 579.268372,629.608459 
z"/>
<path fill="#233865" opacity="1.000000" stroke="none" 
	d="
M296.986633,485.200012 
	C297.248749,485.270660 297.304626,485.503113 297.307098,485.736115 
	C297.307495,485.775848 297.079315,485.817993 296.757416,485.867615 
	C296.626221,485.704803 296.694336,485.533417 296.986633,485.200012 
z"/>
<path fill="#45C3AB" opacity="1.000000" stroke="none" 
	d="
M739.315918,210.017365 
	C739.250061,209.819717 739.440125,209.517517 739.876221,209.093658 
	C739.938721,209.285583 739.755310,209.599182 739.315918,210.017365 
z"/>
<path fill="#44B1A2" opacity="1.000000" stroke="none" 
	d="
M668.339355,323.321960 
	C668.235718,323.127350 668.377197,322.745209 668.770386,322.185242 
	C668.876221,322.383087 668.730286,322.758759 668.339355,323.321960 
z"/>
<path fill="#3A9393" opacity="1.000000" stroke="none" 
	d="
M540.635376,569.661743 
	C540.337830,569.696228 540.177979,569.414246 540.134399,568.815247 
	C540.311218,568.845093 540.485352,569.127380 540.635376,569.661743 
z"/>
<path fill="#3EA79D" opacity="1.000000" stroke="none" 
	d="
M605.322083,291.227325 
	C605.198608,291.073792 605.270874,290.749268 605.519775,290.246613 
	C605.636902,290.397766 605.577332,290.727081 605.322083,291.227325 
z"/>
<path fill="#2F6E80" opacity="1.000000" stroke="none" 
	d="
M428.791321,204.780029 
	C428.203522,204.424103 427.908203,204.005402 427.612885,203.586716 
	C428.049530,203.473801 428.486206,203.360886 428.922852,203.247986 
	C428.976471,203.737747 429.030151,204.227509 428.791321,204.780029 
z"/>
<path fill="#45C3AB" opacity="1.000000" stroke="none" 
	d="
M742.472412,185.456207 
	C742.521851,185.428009 742.423035,185.484421 742.472412,185.456207 
z"/>
<path fill="#3EA79D" opacity="1.000000" stroke="none" 
	d="
M632.781616,159.208282 
	C632.425049,159.797119 632.005615,160.092957 631.586182,160.388794 
	C631.473083,159.951370 631.359985,159.513947 631.246887,159.076508 
	C631.737488,159.022766 632.228149,158.969025 632.781616,159.208282 
z"/>
<path fill="#3EA79D" opacity="1.000000" stroke="none" 
	d="
M635.781677,200.208221 
	C635.424988,200.797211 635.005371,201.093109 634.585693,201.389008 
	C634.472534,200.951492 634.359375,200.513977 634.246216,200.076447 
	C634.737061,200.022690 635.227905,199.968918 635.781677,200.208221 
z"/>
<path fill="#3EA79D" opacity="1.000000" stroke="none" 
	d="
M628.483765,176.290070 
	C628.478027,175.550537 628.679993,175.025650 628.882019,174.500763 
	C629.151672,174.632843 629.421387,174.764923 629.691040,174.897018 
	C629.357849,175.432922 629.024658,175.968811 628.483765,176.290070 
z"/>
<path fill="#3EA79D" opacity="1.000000" stroke="none" 
	d="
M633.411865,164.954712 
	C633.796997,164.720215 634.179810,164.722244 634.560547,164.751907 
	C634.571106,164.752731 634.558716,165.049469 634.557007,165.208221 
	C634.174438,165.203842 633.791809,165.199463 633.411865,164.954712 
z"/>
<path fill="#3EA79D" opacity="1.000000" stroke="none" 
	d="
M599.531982,282.723022 
	C600.714844,284.225281 601.643005,286.013031 602.571228,287.800781 
	C601.709229,288.085052 600.847168,288.369324 599.985168,288.653595 
	C599.749268,286.771912 599.513306,284.890198 599.531982,282.723022 
z"/>
<path fill="#2D617A" opacity="1.000000" stroke="none" 
	d="
M388.622467,346.548645 
	C389.057373,346.661316 389.321106,346.937775 389.584839,347.214233 
	C389.470398,347.323395 389.355927,347.432526 389.241455,347.541656 
	C388.978058,347.265259 388.714661,346.988831 388.622467,346.548645 
z"/>
<path fill="#317282" opacity="1.000000" stroke="none" 
	d="
M440.405151,600.480774 
	C441.924561,602.169189 443.136444,603.993713 444.348297,605.818298 
	C443.913940,606.073669 443.479553,606.329102 443.045197,606.584473 
	C441.001801,605.212036 438.717468,603.979614 440.405151,600.480774 
z"/>
</svg>