<svg width="800" height="600" xmlns="http://www.w3.org/2000/svg">

 <g>
  <title>Layer 1</title>
  <path stroke="null" d="m606.2018,262.96574l0.25361,-160.90601l-163.8128,0.0623l-96.70048,-94.8033l-13.55772,13.43652l20.71172,20.4663a7.00606,6.8844 0 0 1 0,9.81261l-21.64163,21.21392a7.00606,6.8844 0 0 1 -9.91204,0l-20.64832,-20.58052c-0.62347,0.65417 -7.46045,7.41397 -14.10722,13.79995l37.35507,36.66489c-42.14201,0.08307 -105.85168,-0.1246 -147.06378,0l-0.36985,22.71956a7.01662,6.89479 0 0 1 -7.09059,6.92594l-30.56035,0a6.95322,6.83248 0 0 1 -6.96379,-6.92594l0,-22.70918l-19.76067,0l0.22191,497.74326l19.53876,0.08307l0,-23.29067a6.97435,6.85325 0 0 1 6.96379,-6.92594l30.56035,0c3.97327,0 7.09059,3.09435 7.09059,6.92594l0,23.29067l429.64138,-0.18691l-0.05284,-220.30084l37.88343,37.101l13.8536,-13.41576l-20.48981,-20.36246a6.97435,6.85325 0 0 1 0,-9.83338l21.59937,-21.29699c2.71577,-2.679 7.32307,-3.10473 9.57389,-0.3842l16.50597,16.61394l4.16348,3.89389l14.01211,-13.39499c-29.11265,-28.8771 -67.57727,-66.31039 -97.19714,-95.4367zm-429.48287,223.30174a7.02719,6.90517 0 0 1 -7.09059,6.92594l-30.56035,0a6.97435,6.85325 0 0 1 -6.96379,-6.92594l0,-34.31817c0,-3.83159 3.07506,-6.96747 6.96379,-6.96747l30.56035,0c3.97327,0 7.09059,3.13588 7.09059,6.96747l0,34.31817zm0,-118.36394a7.08003,6.95709 0 0 1 -7.09059,7.02977l-30.56035,0a7.03776,6.91555 0 0 1 -6.96379,-7.02977l0,-34.25587c0,-3.86274 3.07506,-6.92594 6.96379,-6.92594l30.56035,0c3.97327,0 7.09059,3.0632 7.09059,6.92594l0,34.25587zm0,-118.27049a7.08003,6.95709 0 0 1 -7.09059,6.97785l-30.56035,0a7.01662,6.89479 0 0 1 -6.96379,-6.97785l0,-34.24548c0,-3.95619 3.07506,-7.02977 6.96379,-7.02977l30.56035,0c3.97327,0 7.09059,3.0632 7.09059,7.02977l0,34.24548zm261.85532,-114.82309l-21.5888,21.20354a7.1223,6.99862 0 0 1 -10.00714,0l-24.72726,-24.2252a7.10116,6.97785 0 0 1 0,-9.84376l21.57823,-21.24508a7.14343,7.01939 0 0 1 10.00714,0l24.73782,24.2252a7.2491,7.12323 0 0 1 0,9.88529zm85.1611,83.66157l-21.5571,21.19316a7.1223,6.99862 0 0 1 -10.07055,0l-24.68499,-24.25635a7.154,7.02977 0 0 1 0,-9.85414l21.57823,-21.17239a7.20683,7.08169 0 0 1 10.05998,0l24.67442,24.2252a7.20683,7.08169 0 0 1 0,9.86453zm84.88635,83.58889l-21.63107,21.25546a7.01662,6.89479 0 0 1 -9.96487,0l-24.61102,-24.27712a7.1857,7.06092 0 0 1 0,-9.84376l21.5571,-21.17239a6.93209,6.81172 0 0 1 9.9226,0l24.72726,24.23558a6.86868,6.74941 0 0 1 0,9.80222"/>
 </g>
</svg>